<svg width="279" height="183" viewBox="0 0 279 183" fill="none" xmlns="http://www.w3.org/2000/svg">
<rect x="8.0918" y="8.09195" width="92" height="90.1021" stroke="black" stroke-linejoin="round"/>
<rect x="0.5" y="0.5" width="14.1837" height="14.1837" fill="white" stroke="black" stroke-linejoin="round"/>
<rect x="91.6021" y="0.5" width="14.1837" height="14.1837" fill="white" stroke="black" stroke-linejoin="round"/>
<rect x="91.6021" y="91.6024" width="14.1837" height="14.1837" fill="white" stroke="black" stroke-linejoin="round"/>
<rect x="0.5" y="91.6024" width="14.1837" height="14.1837" fill="white" stroke="black" stroke-linejoin="round"/>
<path d="M54.0922 18.9796L62.9118 33.8798L80.0602 31.4851L73.9097 47.6707L86.4738 59.5848L69.9846 64.8677L68.5034 82.1189L54.0922 72.521L39.6811 82.1189L38.1998 64.8677L21.7107 59.5848L34.2747 47.6707L28.1242 31.4851L45.2726 33.8798L54.0922 18.9796Z" fill="#FFC0C0"/>
<rect x="180.806" y="84.0105" width="92" height="90.1021" stroke="black" stroke-linejoin="round"/>
<rect x="173.214" y="76.4185" width="14.1837" height="14.1837" fill="white" stroke="black" stroke-linejoin="round"/>
<rect x="264.316" y="76.4185" width="14.1837" height="14.1837" fill="white" stroke="black" stroke-linejoin="round"/>
<rect x="264.316" y="167.52" width="14.1837" height="14.1837" fill="white" stroke="black" stroke-linejoin="round"/>
<rect x="173.214" y="167.52" width="14.1837" height="14.1837" fill="white" stroke="black" stroke-linejoin="round"/>
<path d="M101.541 53.1431L134.347 53.1431C138.765 53.1431 142.347 56.7249 142.347 61.1431L142.347 121.062C142.347 125.48 145.929 129.062 150.347 129.062L181.255 129.062" stroke="black" stroke-linecap="square"/>
<path d="M254.326 128.112C254.326 122.669 252.712 117.349 249.688 112.823C246.664 108.297 242.366 104.77 237.338 102.687C232.309 100.604 226.776 100.059 221.437 101.121C216.099 102.183 211.195 104.804 207.346 108.653C203.497 112.501 200.876 117.405 199.814 122.743C198.753 128.082 199.298 133.615 201.381 138.644C203.463 143.673 206.991 147.971 211.517 150.995C216.042 154.019 221.363 155.633 226.806 155.633L226.806 145.077C223.451 145.077 220.171 144.082 217.381 142.218C214.591 140.354 212.417 137.704 211.133 134.605C209.849 131.505 209.513 128.094 210.167 124.803C210.822 121.512 212.438 118.489 214.81 116.116C217.183 113.744 220.206 112.128 223.496 111.473C226.787 110.819 230.198 111.155 233.298 112.439C236.398 113.723 239.048 115.897 240.912 118.687C242.776 121.477 243.771 124.757 243.771 128.112H254.326Z" fill="#C0DCE8"/>
</svg>
