<svg width="84" height="108" viewBox="0 0 84 108" fill="none" xmlns="http://www.w3.org/2000/svg">
<path d="M56.2633 5.1681C47.5365 1.43338 37.6826 -0.50342 27.6695 2.40931L26.6998 2.70717L26.6597 2.71986L26.6187 2.73353C7.18571 9.36288 0.517206 30.0539 6.94198 46.9601C-2.52932 57.4378 -0.00418663 74.0534 9.76131 82.7374C11.8249 84.5725 14.9849 84.3869 16.8199 82.3234C18.6548 80.2599 18.4701 77.0998 16.4068 75.2648C11.0833 70.5308 9.59076 62.439 12.4224 56.5704C12.8217 57.07 13.2357 57.5614 13.6656 58.0431C16.0841 60.9819 20.7765 65.0639 25.7369 67.8195C28.2591 69.2206 31.1746 70.4633 34.1334 70.8888C37.145 71.3219 40.7111 70.9536 43.6461 68.421L43.6988 68.3751L43.7515 68.3273C47.3728 65.0197 47.5145 60.2513 47.1207 57.3663L47.1168 57.337C46.0741 50.023 41.0413 44.0743 34.9195 40.9796C28.6018 37.632 21.4024 37.9432 15.3551 40.6837C12.3155 29.0907 17.6971 16.3607 29.818 12.2081C37.0641 9.89092 44.6548 11.0773 52.3287 14.3615C60.0517 17.6666 67.4232 22.9147 73.898 28.0538C76.0609 29.7705 79.2057 29.409 80.9224 27.2462C82.6391 25.0834 82.2776 21.9386 80.1148 20.2218C73.4521 14.9335 65.2404 9.01004 56.2633 5.1681ZM19.7222 49.672C23.1739 48.195 27.0889 48.1476 30.2369 49.8156L30.2916 49.8449L30.3463 49.8722C34.0625 51.7263 36.7027 55.1457 37.2164 58.7482C37.3099 59.4542 37.2843 60.0578 37.1881 60.4835C37.1422 60.6862 37.0887 60.809 37.0543 60.8732C37.0477 60.8854 37.0409 60.8951 37.0357 60.9035C36.8875 60.9884 36.4954 61.1254 35.5562 60.9904C34.2746 60.8059 32.5677 60.1741 30.5933 59.0773C26.6221 56.8712 22.8795 53.5308 21.3394 51.6329L21.2613 51.5363L21.1773 51.4435C20.6606 50.868 20.1772 50.2756 19.7222 49.672Z" fill="#FFE4E4" stroke="#333333" stroke-miterlimit="10" stroke-linecap="round"/>
<rect x="24.0034" y="91.5" width="15" height="15" rx="7.5" fill="white" stroke="#333333"/>
</svg>
