<svg width="84" height="103" viewBox="0 0 84 103" fill="none" xmlns="http://www.w3.org/2000/svg">
<path d="M27.0589 5.1681C35.8927 1.43338 45.8676 -0.50342 56.0035 2.40931L56.9851 2.70717L57.0256 2.71986L57.0672 2.73353C76.7386 9.36288 83.4889 30.0539 76.9853 46.9601C86.5728 57.4378 84.0167 74.0534 74.1314 82.7374C72.0425 84.5725 68.8437 84.3869 66.9862 82.3234C65.1288 80.2599 65.3157 77.0998 67.4044 75.2648C72.7932 70.5308 74.304 62.439 71.4376 56.5704C71.0334 57.07 70.6143 57.5614 70.1792 58.0431C67.731 60.9819 62.981 65.0639 57.9598 67.8195C55.4067 69.2206 52.4554 70.4633 49.4603 70.8888C46.4118 71.3219 42.8019 70.9536 39.8309 68.421L39.7775 68.3751L39.7241 68.3273C36.0585 65.0197 35.915 60.2513 36.3137 57.3663L36.3176 57.337C37.3731 50.023 42.4676 44.0743 48.6645 40.9796C55.0597 37.632 62.3475 37.9432 68.469 40.6837C71.5459 29.0907 66.0983 16.3607 53.8287 12.2081C46.4936 9.89092 38.8098 11.0773 31.0418 14.3615C23.224 17.6666 15.7621 22.9147 9.2078 28.0538C7.0184 29.7705 3.83504 29.409 2.0972 27.2462C0.359449 25.0834 0.725426 21.9386 2.91473 20.2218C9.65919 14.9335 17.9716 9.01004 27.0589 5.1681ZM64.0482 49.672C60.5542 48.195 56.5912 48.1476 53.4046 49.8156L53.3492 49.8449L53.2939 49.8722C49.532 51.7263 46.8595 55.1457 46.3395 58.7482C46.2448 59.4542 46.2707 60.0578 46.3681 60.4835C46.4146 60.6862 46.4688 60.809 46.5036 60.8732C46.5102 60.8854 46.5172 60.8951 46.5224 60.9035C46.6724 60.9884 47.0694 61.1254 48.02 60.9904C49.3174 60.8059 51.0452 60.1741 53.0438 59.0773C57.0637 56.8712 60.8522 53.5308 62.4112 51.6329L62.4903 51.5363L62.5753 51.4435C63.0984 50.868 63.5877 50.2756 64.0482 49.672Z" fill="white" stroke="#333333" stroke-miterlimit="10" stroke-linecap="round"/>
<rect x="46.6284" y="87.4272" width="15.0728" height="15.0728" rx="7.53638" fill="#FFFAEA" stroke="#333333"/>
</svg>
