<svg width="105" height="56" viewBox="0 0 105 56" fill="none" xmlns="http://www.w3.org/2000/svg">
<path d="M5.10823 49.3935C18.2036 27.0921 42.0347 19.9984 52.9964 19.1179L53.5081 19.0803L53.714 19.0728C55.8301 19.0424 57.621 20.6772 57.7598 22.8129C57.8985 24.9485 56.3346 26.8012 54.2325 27.0452L54.0279 27.0634L53.1404 27.1355C43.6138 28.0534 23.1624 34.4465 12.0068 53.4443C10.8882 55.3493 8.4371 55.9868 6.53211 54.8682C4.62712 53.7496 3.98962 51.2985 5.10823 49.3935Z" fill="white" stroke="#333333" stroke-linecap="round"/>
<path d="M86.0811 1.55762C86.2783 1.25517 86.7217 1.25517 86.9189 1.55762L90.3945 6.88477C90.7326 7.40299 91.3535 7.66051 91.959 7.5332L98.1846 6.22363C98.5377 6.14955 98.8504 6.46231 98.7764 6.81543L97.4668 13.041C97.3395 13.6465 97.597 14.2674 98.1152 14.6055L103.442 18.0811C103.745 18.2783 103.745 18.7217 103.442 18.9189L98.1152 22.3945C97.597 22.7326 97.3395 23.3535 97.4668 23.959L98.7764 30.1846C98.8504 30.5377 98.5377 30.8504 98.1846 30.7764L91.959 29.4668C91.3535 29.3395 90.7326 29.597 90.3945 30.1152L86.9189 35.4424C86.7217 35.7448 86.2783 35.7448 86.0811 35.4424L82.6055 30.1152C82.2674 29.597 81.6465 29.3395 81.041 29.4668L74.8154 30.7764C74.4623 30.8504 74.1496 30.5377 74.2236 30.1846L75.5332 23.959C75.6605 23.3535 75.403 22.7326 74.8848 22.3945L69.5576 18.9189C69.2552 18.7217 69.2552 18.2783 69.5576 18.0811L74.8848 14.6055C75.403 14.2674 75.6605 13.6465 75.5332 13.041L74.2236 6.81543C74.1496 6.46231 74.4623 6.14955 74.8154 6.22363L81.041 7.5332C81.6465 7.66051 82.2674 7.40299 82.6055 6.88477L86.0811 1.55762Z" fill="#C0DCE8" stroke="#333333"/>
</svg>
