<svg width="450" height="443" viewBox="0 0 450 443" fill="none" xmlns="http://www.w3.org/2000/svg">
<g style="mix-blend-mode:screen">
<path d="M419.284 333.544C409.469 371.366 397.056 414.961 368.767 432.862C340.766 450.762 296.889 443.255 264.559 423.623C232.228 403.702 211.155 371.366 183.444 353.177C156.02 334.699 121.669 330.368 85.5858 312.468C49.5026 294.279 11.3987 262.232 2.16143 225.276C-6.78721 188.032 13.1307 145.88 41.9973 115.276C71.1526 84.6728 109.256 65.9064 145.917 47.14C182.578 28.6623 217.795 9.89594 257.053 2.9668C296.312 -3.96233 339.612 0.945823 373.963 20.8671C408.603 40.7883 434.294 75.7227 444.397 113.256C454.501 150.788 449.016 190.631 442.954 226.72C436.603 263.098 429.387 295.434 419.284 333.544Z" fill="white" fill-opacity="0.2"/>
</g>
</svg>
