<svg width="409" height="334" viewBox="0 0 409 334" fill="none" xmlns="http://www.w3.org/2000/svg">
<path d="M169.552 235.417C148.754 211.639 118.546 216.345 85.1187 206.685C51.9394 196.777 15.5412 172.999 4.15129 142.286C-7.2386 111.82 6.13216 74.6671 28.1692 45.6875C50.4537 16.708 81.6522 -3.85015 113.841 0.608258C146.03 5.31435 179.209 35.0369 205.703 46.6783C232.197 58.5674 252.006 52.8705 285.432 47.4214C319.107 42.2199 366.647 37.5139 389.427 54.3567C412.455 71.4472 410.721 110.087 406.264 146.497C402.055 182.659 394.875 216.593 377.542 242.848C359.962 269.103 331.982 288.174 302.765 306.999C273.547 325.575 243.092 344.152 222.293 327.557C201.494 310.962 190.351 259.195 169.552 235.417Z" fill="#C0DCE8" fill-opacity="0.2"/>
</svg>
