<svg width="491" height="386" viewBox="0 0 491 386" fill="none" xmlns="http://www.w3.org/2000/svg">
<g style="mix-blend-mode:multiply">
<path d="M306.45 81.4062C336.825 92.7805 383.848 81.1146 419.772 93.0721C455.696 104.738 480.23 139.736 488.116 179.4C496.001 218.772 487.239 262.811 467.671 303.058C448.102 343.014 418.019 378.887 379.759 385.011C341.498 391.136 295.059 367.513 259.135 349.722C223.21 331.932 197.801 319.682 162.46 311.808C127.412 303.933 82.726 300.142 47.97 277.977C13.506 255.811 -11.0277 215.272 5.03605 183.775C20.8077 152.568 77.1767 130.403 106.676 99.1967C135.882 68.2821 138.803 28.618 158.079 11.1192C177.356 -6.67132 212.988 -2.00497 237.814 17.2438C262.64 36.4925 276.075 70.3236 306.45 81.4062Z" fill="#C0DCE8" fill-opacity="0.2"/>
</g>
</svg>
