<svg width="404" height="456" viewBox="0 0 404 456" fill="none" xmlns="http://www.w3.org/2000/svg">
<g style="mix-blend-mode:screen">
<path d="M155.828 441.236C118.213 451.817 74.3026 463.065 44.5857 447.65C15.0144 432.485 -0.612418 390.803 0.0532198 352.984C0.968234 315.02 18.2795 280.524 20.0257 247.422C22.1667 214.424 8.59717 182.571 5.87551 142.383C3.40322 102.051 11.8828 52.9892 39.1482 26.388C66.8084 -0.109421 113.254 -4.1466 154.235 5.36517C195.361 15.1263 230.771 38.5818 265.455 60.7907C299.889 83.145 333.845 104.107 359.613 134.525C385.381 164.943 402.962 204.817 403.065 244.526C403.314 284.485 386.085 324.28 358.758 351.92C331.43 379.561 294.252 394.901 260.025 407.851C225.403 420.697 193.837 430.758 155.828 441.236Z" fill="white" fill-opacity="0.2"/>
</g>
</svg>
