<svg width="426" height="419" viewBox="0 0 426 419" fill="none" xmlns="http://www.w3.org/2000/svg">
<g style="mix-blend-mode:multiply">
<path d="M396.922 315.474C387.631 351.247 375.88 392.48 349.099 409.411C322.592 426.341 281.055 419.242 250.449 400.673C219.843 381.831 199.894 351.246 173.66 334.043C147.699 316.566 115.18 312.47 81.0213 295.54C46.8624 278.336 10.7908 248.025 2.04613 213.072C-6.42527 177.845 12.4304 137.977 39.7574 109.031C67.3578 80.0856 103.429 62.3359 138.135 44.5861C172.84 27.1095 206.179 9.3598 243.344 2.80606C280.509 -3.74767 321.499 0.894572 354.018 19.7366C386.811 38.5786 411.132 71.6203 420.696 107.12C430.261 142.619 425.069 180.303 419.33 214.437C413.318 248.844 406.486 279.428 396.922 315.474Z" fill="#C0DCE8" fill-opacity="0.2"/>
</g>
</svg>
