<svg width="384" height="390" viewBox="0 0 384 390" fill="none" xmlns="http://www.w3.org/2000/svg">
<path d="M289.122 26.6209C321.906 35.127 359.696 45.8846 375.212 70.4019C390.728 94.6691 384.221 132.696 367.203 160.716C349.935 188.736 321.906 206.999 306.14 231.016C290.123 254.782 286.369 284.553 270.853 315.826C255.086 347.098 227.307 380.121 195.273 388.127C162.99 395.882 126.451 378.62 99.9236 353.602C73.3958 328.334 57.1288 295.311 40.8618 263.539C24.845 231.766 8.57795 201.245 2.57166 167.22C-3.43463 133.196 0.819833 95.6698 18.0879 65.8987C35.356 35.8775 65.6377 13.6117 98.1718 4.85552C130.706 -3.90068 165.242 0.852685 196.525 6.1064C228.058 11.6103 256.087 17.8647 289.122 26.6209Z" fill="#C0DCE8" fill-opacity="0.2"/>
</svg>
