<svg width="301" height="262" viewBox="0 0 301 262" fill="none" xmlns="http://www.w3.org/2000/svg">
<mask id="path-1-inside-1_620_1023" fill="white">
<path d="M260 145C260 207.96 208.96 259 146 259C83.0395 259 32 207.96 32 145C32 82.0395 83.0395 31 146 31C208.96 31 260 82.0395 260 145ZM109.52 145C109.52 165.147 125.853 181.48 146 181.48C166.147 181.48 182.48 165.147 182.48 145C182.48 124.853 166.147 108.52 146 108.52C125.853 108.52 109.52 124.853 109.52 145Z"/>
</mask>
<path d="M260 145C260 207.96 208.96 259 146 259C83.0395 259 32 207.96 32 145C32 82.0395 83.0395 31 146 31C208.96 31 260 82.0395 260 145ZM109.52 145C109.52 165.147 125.853 181.48 146 181.48C166.147 181.48 182.48 165.147 182.48 145C182.48 124.853 166.147 108.52 146 108.52C125.853 108.52 109.52 124.853 109.52 145Z" fill="#AC9ED6" stroke="black" stroke-width="2" mask="url(#path-1-inside-1_620_1023)"/>
<mask id="path-2-inside-2_620_1023" fill="white">
<path d="M146 31C174.686 31 202.318 41.8149 223.383 61.2872C244.448 80.7596 257.398 107.458 259.649 136.056C261.899 164.654 253.286 193.049 235.526 215.577C217.767 238.105 192.167 253.109 163.833 257.596C135.5 262.084 106.517 255.725 82.665 239.788C58.8131 223.85 41.8465 199.506 35.1498 171.613C28.4531 143.719 32.5187 114.326 46.5355 89.2971C60.5523 64.2684 83.4898 45.4441 110.772 36.5795L134.727 110.305C125.997 113.142 118.657 119.166 114.171 127.175C109.686 135.184 108.385 144.59 110.528 153.516C112.671 162.442 118.1 170.232 125.733 175.332C133.365 180.432 142.64 182.467 151.707 181.031C160.773 179.595 168.965 174.793 174.648 167.585C180.331 160.376 183.088 151.289 182.368 142.138C181.647 132.986 177.503 124.443 170.763 118.212C164.022 111.981 155.18 108.52 146 108.52L146 31Z"/>
</mask>
<path d="M146 31C174.686 31 202.318 41.8149 223.383 61.2872C244.448 80.7596 257.398 107.458 259.649 136.056C261.899 164.654 253.286 193.049 235.526 215.577C217.767 238.105 192.167 253.109 163.833 257.596C135.5 262.084 106.517 255.725 82.665 239.788C58.8131 223.85 41.8465 199.506 35.1498 171.613C28.4531 143.719 32.5187 114.326 46.5355 89.2971C60.5523 64.2684 83.4898 45.4441 110.772 36.5795L134.727 110.305C125.997 113.142 118.657 119.166 114.171 127.175C109.686 135.184 108.385 144.59 110.528 153.516C112.671 162.442 118.1 170.232 125.733 175.332C133.365 180.432 142.64 182.467 151.707 181.031C160.773 179.595 168.965 174.793 174.648 167.585C180.331 160.376 183.088 151.289 182.368 142.138C181.647 132.986 177.503 124.443 170.763 118.212C164.022 111.981 155.18 108.52 146 108.52L146 31Z" fill="#B7D4D3" stroke="black" stroke-width="2" mask="url(#path-2-inside-2_620_1023)"/>
<mask id="path-3-inside-3_620_1023" fill="white">
<path d="M146 31C171.607 31 196.467 39.621 216.577 55.4739C236.686 71.3267 250.872 93.4882 256.85 118.387C262.828 143.286 260.249 169.473 249.528 192.727C238.808 215.982 220.571 234.95 197.755 246.575C174.939 258.2 148.874 261.805 123.76 256.81C98.6451 251.814 75.9438 238.508 59.3137 219.037C42.6836 199.566 33.0932 175.062 32.0879 149.476C31.0826 123.889 38.7209 98.7086 53.7721 77.9925L116.487 123.558C111.671 130.187 109.226 138.244 109.548 146.432C109.87 154.62 112.939 162.461 118.26 168.692C123.582 174.923 130.846 179.18 138.883 180.779C146.92 182.378 155.261 181.224 162.562 177.504C169.863 173.784 175.699 167.714 179.129 160.273C182.56 152.831 183.385 144.452 181.472 136.484C179.559 128.516 175.02 121.425 168.585 116.352C162.15 111.279 154.194 108.52 146 108.52L146 31Z"/>
</mask>
<path d="M146 31C171.607 31 196.467 39.621 216.577 55.4739C236.686 71.3267 250.872 93.4882 256.85 118.387C262.828 143.286 260.249 169.473 249.528 192.727C238.808 215.982 220.571 234.95 197.755 246.575C174.939 258.2 148.874 261.805 123.76 256.81C98.6451 251.814 75.9438 238.508 59.3137 219.037C42.6836 199.566 33.0932 175.062 32.0879 149.476C31.0826 123.889 38.7209 98.7086 53.7721 77.9925L116.487 123.558C111.671 130.187 109.226 138.244 109.548 146.432C109.87 154.62 112.939 162.461 118.26 168.692C123.582 174.923 130.846 179.18 138.883 180.779C146.92 182.378 155.261 181.224 162.562 177.504C169.863 173.784 175.699 167.714 179.129 160.273C182.56 152.831 183.385 144.452 181.472 136.484C179.559 128.516 175.02 121.425 168.585 116.352C162.15 111.279 154.194 108.52 146 108.52L146 31Z" fill="#D6F991" stroke="black" stroke-width="2" mask="url(#path-3-inside-3_620_1023)"/>
<mask id="path-4-inside-4_620_1023" fill="white">
<path d="M146 31C167.024 31 187.639 36.8139 205.565 47.799C223.491 58.7841 238.03 74.5124 247.575 93.2451C257.12 111.978 261.298 132.985 259.649 153.944C257.999 174.904 250.586 194.999 238.228 212.008C225.87 229.016 209.05 242.277 189.626 250.322C170.202 258.368 148.932 260.885 128.166 257.596C107.401 254.308 87.9498 245.34 71.9629 231.686C55.976 218.032 44.0764 200.223 37.5796 180.228L111.305 156.273C113.384 162.671 117.192 168.37 122.308 172.74C127.424 177.109 133.648 179.978 140.293 181.031C146.938 182.083 153.745 181.278 159.96 178.703C166.176 176.129 171.558 171.885 175.513 166.442C179.467 161 181.84 154.569 182.368 147.862C182.895 141.155 181.558 134.433 178.504 128.438C175.45 122.444 170.797 117.411 165.061 113.896C159.324 110.38 152.728 108.52 146 108.52L146 31Z"/>
</mask>
<path d="M146 31C167.024 31 187.639 36.8139 205.565 47.799C223.491 58.7841 238.03 74.5124 247.575 93.2451C257.12 111.978 261.298 132.985 259.649 153.944C257.999 174.904 250.586 194.999 238.228 212.008C225.87 229.016 209.05 242.277 189.626 250.322C170.202 258.368 148.932 260.885 128.166 257.596C107.401 254.308 87.9498 245.34 71.9629 231.686C55.976 218.032 44.0764 200.223 37.5796 180.228L111.305 156.273C113.384 162.671 117.192 168.37 122.308 172.74C127.424 177.109 133.648 179.978 140.293 181.031C146.938 182.083 153.745 181.278 159.96 178.703C166.176 176.129 171.558 171.885 175.513 166.442C179.467 161 181.84 154.569 182.368 147.862C182.895 141.155 181.558 134.433 178.504 128.438C175.45 122.444 170.797 117.411 165.061 113.896C159.324 110.38 152.728 108.52 146 108.52L146 31Z" fill="#FFCD6E" stroke="black" stroke-width="2" mask="url(#path-4-inside-4_620_1023)"/>
<mask id="path-5-inside-5_620_1023" fill="white">
<path d="M146 31C176.235 31 205.231 43.0107 226.61 64.3898C247.989 85.769 260 114.765 260 145C260 175.235 247.989 204.231 226.61 225.61C205.231 246.989 176.235 259 146 259L146 181.48C155.675 181.48 164.954 177.637 171.795 170.795C178.637 163.954 182.48 154.675 182.48 145C182.48 135.325 178.637 126.046 171.795 119.205C164.954 112.363 155.675 108.52 146 108.52L146 31Z"/>
</mask>
<path d="M146 31C176.235 31 205.231 43.0107 226.61 64.3898C247.989 85.769 260 114.765 260 145C260 175.235 247.989 204.231 226.61 225.61C205.231 246.989 176.235 259 146 259L146 181.48C155.675 181.48 164.954 177.637 171.795 170.795C178.637 163.954 182.48 154.675 182.48 145C182.48 135.325 178.637 126.046 171.795 119.205C164.954 112.363 155.675 108.52 146 108.52L146 31Z" fill="#FFA8A7" stroke="black" stroke-width="2" mask="url(#path-5-inside-5_620_1023)"/>
<rect x="219.5" y="136.5" width="81" height="27" fill="white"/>
<rect x="219.5" y="136.5" width="81" height="27" stroke="black"/>
<path d="M235.304 157.672C235.144 157.021 234.909 156.285 234.6 155.464C234.291 154.643 233.933 153.789 233.528 152.904C233.123 152.019 232.691 151.16 232.232 150.328C231.464 150.669 230.749 150.995 230.088 151.304C229.437 151.603 228.925 151.843 228.552 152.024L227.976 151.112C228.381 150.952 228.92 150.728 229.592 150.44C230.264 150.152 230.984 149.843 231.752 149.512C231.048 148.275 230.349 147.288 229.656 146.552L230.536 146.088C230.877 146.472 231.229 146.92 231.592 147.432C231.955 147.944 232.317 148.499 232.68 149.096C233.523 148.723 234.328 148.365 235.096 148.024C235.875 147.683 236.509 147.411 237 147.208C237.64 146.931 238.248 146.787 238.824 146.776C239.411 146.765 239.928 146.861 240.376 147.064C240.824 147.267 241.176 147.555 241.432 147.928C241.699 148.301 241.832 148.739 241.832 149.24C241.832 149.923 241.667 150.483 241.336 150.92C241.005 151.347 240.563 151.661 240.008 151.864C239.464 152.056 238.851 152.147 238.168 152.136C237.485 152.125 236.792 152.019 236.088 151.816C236.099 151.677 236.093 151.501 236.072 151.288C236.061 151.064 236.045 150.888 236.024 150.76C236.483 150.931 236.984 151.048 237.528 151.112C238.083 151.165 238.605 151.144 239.096 151.048C239.597 150.952 240.003 150.76 240.312 150.472C240.632 150.173 240.792 149.757 240.792 149.224C240.792 148.787 240.637 148.44 240.328 148.184C240.019 147.917 239.608 147.768 239.096 147.736C238.584 147.704 238.013 147.816 237.384 148.072C236.893 148.275 236.264 148.547 235.496 148.888C234.739 149.219 233.955 149.565 233.144 149.928C233.613 150.749 234.051 151.597 234.456 152.472C234.872 153.336 235.245 154.179 235.576 155C235.907 155.821 236.168 156.568 236.36 157.24C236.221 157.272 236.04 157.331 235.816 157.416C235.603 157.501 235.432 157.587 235.304 157.672ZM235.544 147.4C235.469 147.165 235.363 146.904 235.224 146.616C235.085 146.317 234.931 146.035 234.76 145.768C234.589 145.491 234.413 145.261 234.232 145.08L235.144 144.632C235.304 144.835 235.464 145.075 235.624 145.352C235.795 145.629 235.949 145.907 236.088 146.184C236.237 146.461 236.349 146.707 236.424 146.92C236.307 146.963 236.152 147.037 235.96 147.144C235.768 147.24 235.629 147.325 235.544 147.4ZM254.136 157.448C253.272 157.491 252.445 157.459 251.656 157.352C250.877 157.256 250.184 157.075 249.576 156.808C248.968 156.531 248.488 156.168 248.136 155.72C247.795 155.261 247.624 154.707 247.624 154.056C247.624 153.501 247.779 153.032 248.088 152.648C248.408 152.264 248.84 151.971 249.384 151.768C249.928 151.555 250.547 151.432 251.24 151.4C251.933 151.357 252.653 151.405 253.4 151.544C252.963 151.064 252.563 150.541 252.2 149.976C251.848 149.4 251.544 148.803 251.288 148.184C250.275 148.269 249.283 148.339 248.312 148.392C247.352 148.445 246.52 148.467 245.816 148.456L245.64 147.416C246.291 147.459 247.085 147.469 248.024 147.448C248.973 147.416 249.949 147.357 250.952 147.272C250.792 146.771 250.669 146.275 250.584 145.784C250.499 145.283 250.456 144.787 250.456 144.296H251.512C251.48 145.224 251.629 146.184 251.96 147.176C253.005 147.08 253.981 146.963 254.888 146.824C255.795 146.675 256.499 146.531 257 146.392L257.224 147.4C256.691 147.517 255.987 147.64 255.112 147.768C254.237 147.885 253.299 147.992 252.296 148.088C252.637 148.867 253.075 149.608 253.608 150.312C254.152 151.005 254.765 151.597 255.448 152.088L254.824 152.872C254.152 152.595 253.459 152.413 252.744 152.328C252.029 152.232 251.357 152.232 250.728 152.328C250.109 152.424 249.608 152.616 249.224 152.904C248.84 153.192 248.648 153.576 248.648 154.056C248.648 154.547 248.808 154.952 249.128 155.272C249.448 155.592 249.885 155.843 250.44 156.024C250.995 156.195 251.619 156.307 252.312 156.36C253.016 156.403 253.741 156.392 254.488 156.328C254.413 156.477 254.339 156.669 254.264 156.904C254.2 157.128 254.157 157.309 254.136 157.448ZM267.8 157.272C266.701 157.272 265.901 157.101 265.4 156.76C264.909 156.408 264.664 155.763 264.664 154.824V144.328L265.8 144.392C265.789 144.563 265.773 144.861 265.752 145.288C265.741 145.715 265.731 146.195 265.72 146.728C265.709 147.123 265.699 147.555 265.688 148.024C265.688 148.493 265.688 148.989 265.688 149.512V154.696C265.688 155.283 265.848 155.693 266.168 155.928C266.488 156.152 267.048 156.264 267.848 156.264C268.488 156.264 269.128 156.168 269.768 155.976C270.419 155.784 271.032 155.533 271.608 155.224C272.184 154.915 272.68 154.589 273.096 154.248C273.096 154.312 273.107 154.429 273.128 154.6C273.16 154.771 273.187 154.936 273.208 155.096C273.24 155.245 273.261 155.347 273.272 155.4C272.76 155.763 272.195 156.088 271.576 156.376C270.968 156.653 270.339 156.872 269.688 157.032C269.048 157.192 268.419 157.272 267.8 157.272ZM287.416 157.448C286.552 157.491 285.725 157.459 284.936 157.352C284.157 157.256 283.464 157.075 282.856 156.808C282.248 156.531 281.768 156.168 281.416 155.72C281.075 155.261 280.904 154.707 280.904 154.056C280.904 153.501 281.059 153.032 281.368 152.648C281.688 152.264 282.12 151.971 282.664 151.768C283.208 151.555 283.827 151.432 284.52 151.4C285.213 151.357 285.933 151.405 286.68 151.544C286.243 151.064 285.843 150.541 285.48 149.976C285.128 149.4 284.824 148.803 284.568 148.184C283.555 148.269 282.563 148.339 281.592 148.392C280.632 148.445 279.8 148.467 279.096 148.456L278.92 147.416C279.571 147.459 280.365 147.469 281.304 147.448C282.253 147.416 283.229 147.357 284.232 147.272C284.072 146.771 283.949 146.275 283.864 145.784C283.779 145.283 283.736 144.787 283.736 144.296H284.792C284.76 145.224 284.909 146.184 285.24 147.176C286.285 147.08 287.261 146.963 288.168 146.824C289.075 146.675 289.779 146.531 290.28 146.392L290.504 147.4C289.971 147.517 289.267 147.64 288.392 147.768C287.517 147.885 286.579 147.992 285.576 148.088C285.917 148.867 286.355 149.608 286.888 150.312C287.432 151.005 288.045 151.597 288.728 152.088L288.104 152.872C287.432 152.595 286.739 152.413 286.024 152.328C285.309 152.232 284.637 152.232 284.008 152.328C283.389 152.424 282.888 152.616 282.504 152.904C282.12 153.192 281.928 153.576 281.928 154.056C281.928 154.547 282.088 154.952 282.408 155.272C282.728 155.592 283.165 155.843 283.72 156.024C284.275 156.195 284.899 156.307 285.592 156.36C286.296 156.403 287.021 156.392 287.768 156.328C287.693 156.477 287.619 156.669 287.544 156.904C287.48 157.128 287.437 157.309 287.416 157.448Z" fill="black"/>
<path d="M280.172 178.078C279.652 178.078 279.158 177.948 278.69 177.688C278.231 177.428 277.871 177.077 277.611 176.635L278.547 176.037C278.746 176.34 278.98 176.579 279.249 176.752C279.518 176.925 279.825 177.012 280.172 177.012C280.727 177.012 281.147 176.852 281.433 176.531C281.728 176.202 281.875 175.742 281.875 175.153C281.875 174.581 281.745 174.139 281.485 173.827C281.234 173.515 280.883 173.359 280.432 173.359C280.163 173.359 279.912 173.424 279.678 173.554C279.453 173.684 279.292 173.862 279.197 174.087H278.17V168.9H282.655V169.927H279.288V172.774C279.626 172.479 280.012 172.332 280.445 172.332C280.93 172.332 281.364 172.44 281.745 172.657C282.126 172.874 282.425 173.194 282.642 173.619C282.867 174.035 282.98 174.546 282.98 175.153C282.98 176.098 282.72 176.821 282.2 177.324C281.689 177.827 281.013 178.078 280.172 178.078ZM287.189 178.143C286.201 178.143 285.516 177.757 285.135 176.986C284.753 176.215 284.563 175.036 284.563 173.45C284.563 171.864 284.753 170.685 285.135 169.914C285.516 169.134 286.201 168.744 287.189 168.744C288.168 168.744 288.848 169.134 289.23 169.914C289.611 170.685 289.802 171.864 289.802 173.45C289.802 175.036 289.611 176.215 289.23 176.986C288.848 177.757 288.168 178.143 287.189 178.143ZM287.189 177.064C287.553 177.064 287.843 176.956 288.06 176.739C288.285 176.514 288.445 176.137 288.541 175.608C288.645 175.079 288.697 174.36 288.697 173.45C288.697 172.531 288.645 171.808 288.541 171.279C288.445 170.75 288.285 170.378 288.06 170.161C287.843 169.936 287.553 169.823 287.189 169.823C286.833 169.823 286.543 169.936 286.318 170.161C286.092 170.378 285.928 170.75 285.824 171.279C285.72 171.808 285.668 172.531 285.668 173.45C285.668 174.36 285.72 175.079 285.824 175.608C285.928 176.137 286.092 176.514 286.318 176.739C286.543 176.956 286.833 177.064 287.189 177.064ZM293.584 173.346C292.994 173.346 292.518 173.138 292.154 172.722C291.798 172.306 291.621 171.743 291.621 171.032C291.621 170.33 291.798 169.775 292.154 169.368C292.518 168.952 292.994 168.744 293.584 168.744C294.173 168.744 294.645 168.952 295.001 169.368C295.365 169.775 295.547 170.33 295.547 171.032C295.547 171.743 295.365 172.306 295.001 172.722C294.645 173.138 294.173 173.346 293.584 173.346ZM298.394 178.143C297.813 178.143 297.341 177.939 296.977 177.532C296.613 177.116 296.431 176.557 296.431 175.855C296.431 175.153 296.613 174.594 296.977 174.178C297.341 173.762 297.813 173.554 298.394 173.554C298.983 173.554 299.455 173.762 299.811 174.178C300.175 174.594 300.357 175.153 300.357 175.855C300.357 176.557 300.175 177.116 299.811 177.532C299.455 177.939 298.983 178.143 298.394 178.143ZM292.96 178.26L292.375 177.844L299.005 168.601L299.577 169.03L292.96 178.26ZM298.394 177.259C298.74 177.259 299.005 177.138 299.187 176.895C299.369 176.652 299.46 176.306 299.46 175.855C299.46 175.404 299.369 175.058 299.187 174.815C299.005 174.572 298.74 174.451 298.394 174.451C298.047 174.451 297.783 174.572 297.601 174.815C297.419 175.058 297.328 175.404 297.328 175.855C297.328 176.306 297.419 176.652 297.601 176.895C297.783 177.138 298.047 177.259 298.394 177.259ZM293.584 172.436C293.922 172.436 294.182 172.315 294.364 172.072C294.546 171.829 294.637 171.483 294.637 171.032C294.637 170.59 294.546 170.248 294.364 170.005C294.182 169.762 293.922 169.641 293.584 169.641C293.237 169.641 292.973 169.762 292.791 170.005C292.609 170.248 292.518 170.59 292.518 171.032C292.518 171.483 292.609 171.829 292.791 172.072C292.973 172.315 293.237 172.436 293.584 172.436Z" fill="#666666"/>
<path d="M32.416 261V260.636C32.416 259.995 32.598 259.379 32.962 258.79C33.3347 258.201 33.872 257.572 34.574 256.905C34.8687 256.619 35.1417 256.337 35.393 256.06C35.653 255.774 35.8653 255.492 36.03 255.215C36.1947 254.938 36.2813 254.669 36.29 254.409C36.3073 253.898 36.1903 253.516 35.939 253.265C35.6877 253.014 35.3323 252.888 34.873 252.888C34.4743 252.888 34.158 253.035 33.924 253.33C33.69 253.616 33.573 254.028 33.573 254.565H32.468C32.468 253.716 32.689 253.048 33.131 252.563C33.5817 252.069 34.1623 251.822 34.873 251.822C35.3757 251.822 35.8177 251.926 36.199 252.134C36.589 252.333 36.888 252.628 37.096 253.018C37.3127 253.408 37.4123 253.88 37.395 254.435C37.3863 254.842 37.2867 255.224 37.096 255.579C36.9053 255.926 36.6583 256.264 36.355 256.593C36.0517 256.922 35.7137 257.269 35.341 257.633C34.925 258.058 34.5437 258.469 34.197 258.868C33.859 259.258 33.6597 259.626 33.599 259.973H37.265V261H32.416ZM41.6105 261.143C40.6225 261.143 39.9378 260.757 39.5565 259.986C39.1751 259.215 38.9845 258.036 38.9845 256.45C38.9845 254.864 39.1751 253.685 39.5565 252.914C39.9378 252.134 40.6225 251.744 41.6105 251.744C42.5898 251.744 43.2701 252.134 43.6515 252.914C44.0328 253.685 44.2235 254.864 44.2235 256.45C44.2235 258.036 44.0328 259.215 43.6515 259.986C43.2701 260.757 42.5898 261.143 41.6105 261.143ZM41.6105 260.064C41.9745 260.064 42.2648 259.956 42.4815 259.739C42.7068 259.514 42.8671 259.137 42.9625 258.608C43.0665 258.079 43.1185 257.36 43.1185 256.45C43.1185 255.531 43.0665 254.808 42.9625 254.279C42.8671 253.75 42.7068 253.378 42.4815 253.161C42.2648 252.936 41.9745 252.823 41.6105 252.823C41.2551 252.823 40.9648 252.936 40.7395 253.161C40.5141 253.378 40.3495 253.75 40.2455 254.279C40.1415 254.808 40.0895 255.531 40.0895 256.45C40.0895 257.36 40.1415 258.079 40.2455 258.608C40.3495 259.137 40.5141 259.514 40.7395 259.739C40.9648 259.956 41.2551 260.064 41.6105 260.064ZM48.0055 256.346C47.4162 256.346 46.9395 256.138 46.5755 255.722C46.2202 255.306 46.0425 254.743 46.0425 254.032C46.0425 253.33 46.2202 252.775 46.5755 252.368C46.9395 251.952 47.4162 251.744 48.0055 251.744C48.5949 251.744 49.0672 251.952 49.4225 252.368C49.7865 252.775 49.9685 253.33 49.9685 254.032C49.9685 254.743 49.7865 255.306 49.4225 255.722C49.0672 256.138 48.5949 256.346 48.0055 256.346ZM52.8155 261.143C52.2349 261.143 51.7625 260.939 51.3985 260.532C51.0345 260.116 50.8525 259.557 50.8525 258.855C50.8525 258.153 51.0345 257.594 51.3985 257.178C51.7625 256.762 52.2349 256.554 52.8155 256.554C53.4049 256.554 53.8772 256.762 54.2325 257.178C54.5965 257.594 54.7785 258.153 54.7785 258.855C54.7785 259.557 54.5965 260.116 54.2325 260.532C53.8772 260.939 53.4049 261.143 52.8155 261.143ZM47.3815 261.26L46.7965 260.844L53.4265 251.601L53.9985 252.03L47.3815 261.26ZM52.8155 260.259C53.1622 260.259 53.4265 260.138 53.6085 259.895C53.7905 259.652 53.8815 259.306 53.8815 258.855C53.8815 258.404 53.7905 258.058 53.6085 257.815C53.4265 257.572 53.1622 257.451 52.8155 257.451C52.4689 257.451 52.2045 257.572 52.0225 257.815C51.8405 258.058 51.7495 258.404 51.7495 258.855C51.7495 259.306 51.8405 259.652 52.0225 259.895C52.2045 260.138 52.4689 260.259 52.8155 260.259ZM48.0055 255.436C48.3435 255.436 48.6035 255.315 48.7855 255.072C48.9675 254.829 49.0585 254.483 49.0585 254.032C49.0585 253.59 48.9675 253.248 48.7855 253.005C48.6035 252.762 48.3435 252.641 48.0055 252.641C47.6589 252.641 47.3945 252.762 47.2125 253.005C47.0305 253.248 46.9395 253.59 46.9395 254.032C46.9395 254.483 47.0305 254.829 47.2125 255.072C47.3945 255.315 47.6589 255.436 48.0055 255.436Z" fill="#666666"/>
<path d="M2.379 112V104.317L0.663 105.409L0.078 104.473L2.639 102.874H3.484V112H2.379ZM8.57269 112.078C8.05269 112.078 7.55869 111.948 7.09069 111.688C6.63135 111.428 6.27169 111.077 6.01169 110.635L6.94769 110.037C7.14702 110.34 7.38102 110.579 7.64969 110.752C7.91835 110.925 8.22602 111.012 8.57269 111.012C9.12735 111.012 9.54769 110.852 9.83369 110.531C10.1284 110.202 10.2757 109.742 10.2757 109.153C10.2757 108.581 10.1457 108.139 9.88569 107.827C9.63435 107.515 9.28335 107.359 8.83269 107.359C8.56402 107.359 8.31269 107.424 8.07869 107.554C7.85335 107.684 7.69302 107.862 7.59769 108.087H6.57069V102.9H11.0557V103.927H7.68869V106.774C8.02669 106.479 8.41235 106.332 8.84569 106.332C9.33102 106.332 9.76435 106.44 10.1457 106.657C10.527 106.874 10.826 107.194 11.0427 107.619C11.268 108.035 11.3807 108.546 11.3807 109.153C11.3807 110.098 11.1207 110.821 10.6007 111.324C10.0894 111.827 9.41335 112.078 8.57269 112.078ZM14.9264 107.346C14.3371 107.346 13.8604 107.138 13.4964 106.722C13.1411 106.306 12.9634 105.743 12.9634 105.032C12.9634 104.33 13.1411 103.775 13.4964 103.368C13.8604 102.952 14.3371 102.744 14.9264 102.744C15.5158 102.744 15.9881 102.952 16.3434 103.368C16.7074 103.775 16.8894 104.33 16.8894 105.032C16.8894 105.743 16.7074 106.306 16.3434 106.722C15.9881 107.138 15.5158 107.346 14.9264 107.346ZM19.7364 112.143C19.1558 112.143 18.6834 111.939 18.3194 111.532C17.9554 111.116 17.7734 110.557 17.7734 109.855C17.7734 109.153 17.9554 108.594 18.3194 108.178C18.6834 107.762 19.1558 107.554 19.7364 107.554C20.3258 107.554 20.7981 107.762 21.1534 108.178C21.5174 108.594 21.6994 109.153 21.6994 109.855C21.6994 110.557 21.5174 111.116 21.1534 111.532C20.7981 111.939 20.3258 112.143 19.7364 112.143ZM14.3024 112.26L13.7174 111.844L20.3474 102.601L20.9194 103.03L14.3024 112.26ZM19.7364 111.259C20.0831 111.259 20.3474 111.138 20.5294 110.895C20.7114 110.652 20.8024 110.306 20.8024 109.855C20.8024 109.404 20.7114 109.058 20.5294 108.815C20.3474 108.572 20.0831 108.451 19.7364 108.451C19.3898 108.451 19.1254 108.572 18.9434 108.815C18.7614 109.058 18.6704 109.404 18.6704 109.855C18.6704 110.306 18.7614 110.652 18.9434 110.895C19.1254 111.138 19.3898 111.259 19.7364 111.259ZM14.9264 106.436C15.2644 106.436 15.5244 106.315 15.7064 106.072C15.8884 105.829 15.9794 105.483 15.9794 105.032C15.9794 104.59 15.8884 104.248 15.7064 104.005C15.5244 103.762 15.2644 103.641 14.9264 103.641C14.5798 103.641 14.3154 103.762 14.1334 104.005C13.9514 104.248 13.8604 104.59 13.8604 105.032C13.8604 105.483 13.9514 105.829 14.1334 106.072C14.3154 106.315 14.5798 106.436 14.9264 106.436Z" fill="#666666"/>
<path d="M76.5919 34V26.317L74.8759 27.409L74.2909 26.473L76.8519 24.874H77.6969V34H76.5919ZM83.1886 34.143C82.2006 34.143 81.5159 33.7573 81.1346 32.986C80.7533 32.2147 80.5626 31.036 80.5626 29.45C80.5626 27.864 80.7533 26.6853 81.1346 25.914C81.5159 25.134 82.2006 24.744 83.1886 24.744C84.1679 24.744 84.8483 25.134 85.2296 25.914C85.6109 26.6853 85.8016 27.864 85.8016 29.45C85.8016 31.036 85.6109 32.2147 85.2296 32.986C84.8483 33.7573 84.1679 34.143 83.1886 34.143ZM83.1886 33.064C83.5526 33.064 83.8429 32.9557 84.0596 32.739C84.2849 32.5137 84.4453 32.1367 84.5406 31.608C84.6446 31.0793 84.6966 30.36 84.6966 29.45C84.6966 28.5313 84.6446 27.8077 84.5406 27.279C84.4453 26.7503 84.2849 26.3777 84.0596 26.161C83.8429 25.9357 83.5526 25.823 83.1886 25.823C82.8333 25.823 82.5429 25.9357 82.3176 26.161C82.0923 26.3777 81.9276 26.7503 81.8236 27.279C81.7196 27.8077 81.6676 28.5313 81.6676 29.45C81.6676 30.36 81.7196 31.0793 81.8236 31.608C81.9276 32.1367 82.0923 32.5137 82.3176 32.739C82.5429 32.9557 82.8333 33.064 83.1886 33.064ZM89.5837 29.346C88.9944 29.346 88.5177 29.138 88.1537 28.722C87.7984 28.306 87.6207 27.7427 87.6207 27.032C87.6207 26.33 87.7984 25.7753 88.1537 25.368C88.5177 24.952 88.9944 24.744 89.5837 24.744C90.173 24.744 90.6454 24.952 91.0007 25.368C91.3647 25.7753 91.5467 26.33 91.5467 27.032C91.5467 27.7427 91.3647 28.306 91.0007 28.722C90.6454 29.138 90.173 29.346 89.5837 29.346ZM94.3937 34.143C93.813 34.143 93.3407 33.9393 92.9767 33.532C92.6127 33.116 92.4307 32.557 92.4307 31.855C92.4307 31.153 92.6127 30.594 92.9767 30.178C93.3407 29.762 93.813 29.554 94.3937 29.554C94.983 29.554 95.4554 29.762 95.8107 30.178C96.1747 30.594 96.3567 31.153 96.3567 31.855C96.3567 32.557 96.1747 33.116 95.8107 33.532C95.4554 33.9393 94.983 34.143 94.3937 34.143ZM88.9597 34.26L88.3747 33.844L95.0047 24.601L95.5767 25.03L88.9597 34.26ZM94.3937 33.259C94.7404 33.259 95.0047 33.1377 95.1867 32.895C95.3687 32.6523 95.4597 32.3057 95.4597 31.855C95.4597 31.4043 95.3687 31.0577 95.1867 30.815C95.0047 30.5723 94.7404 30.451 94.3937 30.451C94.047 30.451 93.7827 30.5723 93.6007 30.815C93.4187 31.0577 93.3277 31.4043 93.3277 31.855C93.3277 32.3057 93.4187 32.6523 93.6007 32.895C93.7827 33.1377 94.047 33.259 94.3937 33.259ZM89.5837 28.436C89.9217 28.436 90.1817 28.3147 90.3637 28.072C90.5457 27.8293 90.6367 27.4827 90.6367 27.032C90.6367 26.59 90.5457 26.2477 90.3637 26.005C90.1817 25.7623 89.9217 25.641 89.5837 25.641C89.237 25.641 88.9727 25.7623 88.7907 26.005C88.6087 26.2477 88.5177 26.59 88.5177 27.032C88.5177 27.4827 88.6087 27.8293 88.7907 28.072C88.9727 28.3147 89.237 28.436 89.5837 28.436Z" fill="#666666"/>
<path d="M149.23 12.078C148.71 12.078 148.216 11.948 147.748 11.688C147.289 11.428 146.929 11.077 146.669 10.635L147.605 10.037C147.804 10.3403 148.038 10.5787 148.307 10.752C148.576 10.9253 148.883 11.012 149.23 11.012C149.785 11.012 150.205 10.8517 150.491 10.531C150.786 10.2017 150.933 9.74233 150.933 9.153C150.933 8.581 150.803 8.139 150.543 7.827C150.292 7.515 149.941 7.359 149.49 7.359C149.221 7.359 148.97 7.424 148.736 7.554C148.511 7.684 148.35 7.86167 148.255 8.087H147.228V2.9H151.713V3.927H148.346V6.774C148.684 6.47933 149.07 6.332 149.503 6.332C149.988 6.332 150.422 6.44033 150.803 6.657C151.184 6.87367 151.483 7.19433 151.7 7.619C151.925 8.035 152.038 8.54633 152.038 9.153C152.038 10.0977 151.778 10.8213 151.258 11.324C150.747 11.8267 150.071 12.078 149.23 12.078ZM155.584 7.346C154.994 7.346 154.518 7.138 154.154 6.722C153.798 6.306 153.621 5.74267 153.621 5.032C153.621 4.33 153.798 3.77533 154.154 3.368C154.518 2.952 154.994 2.744 155.584 2.744C156.173 2.744 156.645 2.952 157.001 3.368C157.365 3.77533 157.547 4.33 157.547 5.032C157.547 5.74267 157.365 6.306 157.001 6.722C156.645 7.138 156.173 7.346 155.584 7.346ZM160.394 12.143C159.813 12.143 159.341 11.9393 158.977 11.532C158.613 11.116 158.431 10.557 158.431 9.855C158.431 9.153 158.613 8.594 158.977 8.178C159.341 7.762 159.813 7.554 160.394 7.554C160.983 7.554 161.455 7.762 161.811 8.178C162.175 8.594 162.357 9.153 162.357 9.855C162.357 10.557 162.175 11.116 161.811 11.532C161.455 11.9393 160.983 12.143 160.394 12.143ZM154.96 12.26L154.375 11.844L161.005 2.601L161.577 3.03L154.96 12.26ZM160.394 11.259C160.74 11.259 161.005 11.1377 161.187 10.895C161.369 10.6523 161.46 10.3057 161.46 9.855C161.46 9.40433 161.369 9.05767 161.187 8.815C161.005 8.57233 160.74 8.451 160.394 8.451C160.047 8.451 159.783 8.57233 159.601 8.815C159.419 9.05767 159.328 9.40433 159.328 9.855C159.328 10.3057 159.419 10.6523 159.601 10.895C159.783 11.1377 160.047 11.259 160.394 11.259ZM155.584 6.436C155.922 6.436 156.182 6.31467 156.364 6.072C156.546 5.82933 156.637 5.48267 156.637 5.032C156.637 4.59 156.546 4.24767 156.364 4.005C156.182 3.76233 155.922 3.641 155.584 3.641C155.237 3.641 154.973 3.76233 154.791 4.005C154.609 4.24767 154.518 4.59 154.518 5.032C154.518 5.48267 154.609 5.82933 154.791 6.072C154.973 6.31467 155.237 6.436 155.584 6.436Z" fill="#666666"/>
<rect x="32.5" y="218.5" width="81" height="27" fill="white"/>
<rect x="32.5" y="218.5" width="81" height="27" stroke="black"/>
<path d="M45.792 239.48C45.0347 239.459 44.464 239.256 44.08 238.872C43.7067 238.477 43.5253 238.035 43.536 237.544C43.536 237.032 43.776 236.584 44.256 236.2C44.736 235.816 45.4187 235.635 46.304 235.656C46.5493 235.656 46.8 235.667 47.056 235.688C47.312 235.709 47.5627 235.741 47.808 235.784C47.7973 235.411 47.7813 234.995 47.76 234.536C47.7493 234.067 47.7333 233.565 47.712 233.032C47.1893 233.064 46.6667 233.08 46.144 233.08C45.696 233.08 45.328 233.043 45.04 232.968C44.7627 232.893 44.528 232.765 44.336 232.584C44.1547 232.392 43.984 232.141 43.824 231.832L44.656 231.4C44.816 231.699 44.9973 231.896 45.2 231.992C45.4133 232.077 45.7333 232.12 46.16 232.12C46.6613 232.12 47.1733 232.104 47.696 232.072C47.6853 231.677 47.6747 231.272 47.664 230.856C47.6533 230.44 47.6427 230.019 47.632 229.592C46.8747 229.635 46.144 229.667 45.44 229.688C44.736 229.709 44.176 229.715 43.76 229.704L43.712 228.696C44.064 228.728 44.5973 228.739 45.312 228.728C46.0373 228.717 46.8053 228.691 47.616 228.648C47.616 228.275 47.6107 227.901 47.6 227.528C47.6 227.144 47.6 226.765 47.6 226.392H48.608C48.608 226.755 48.608 227.123 48.608 227.496C48.608 227.859 48.6133 228.221 48.624 228.584C49.3173 228.531 49.9627 228.472 50.56 228.408C51.1573 228.333 51.6107 228.259 51.92 228.184V229.176C51.6213 229.24 51.1733 229.304 50.576 229.368C49.9787 229.421 49.328 229.475 48.624 229.528C48.6347 229.955 48.64 230.376 48.64 230.792C48.6507 231.197 48.6613 231.603 48.672 232.008C49.3013 231.955 49.8827 231.885 50.416 231.8C50.96 231.704 51.4027 231.603 51.744 231.496L51.76 232.52C51.3867 232.605 50.9333 232.691 50.4 232.776C49.8667 232.851 49.3013 232.915 48.704 232.968C48.7253 233.565 48.7413 234.125 48.752 234.648C48.7733 235.16 48.7893 235.613 48.8 236.008C49.5467 236.2 50.2613 236.461 50.944 236.792C51.6373 237.123 52.272 237.491 52.848 237.896C52.7947 237.928 52.72 238.013 52.624 238.152C52.528 238.28 52.432 238.413 52.336 238.552C52.2507 238.68 52.1973 238.771 52.176 238.824C51.7173 238.44 51.2 238.093 50.624 237.784C50.0587 237.464 49.4613 237.203 48.832 237C48.8427 237.096 48.848 237.181 48.848 237.256C48.848 237.32 48.848 237.373 48.848 237.416C48.848 237.8 48.7413 238.157 48.528 238.488C48.3147 238.808 47.984 239.059 47.536 239.24C47.088 239.421 46.5067 239.501 45.792 239.48ZM45.824 238.536C46.56 238.557 47.0773 238.451 47.376 238.216C47.6853 237.981 47.84 237.709 47.84 237.4C47.84 237.325 47.84 237.235 47.84 237.128C47.84 237.011 47.8347 236.883 47.824 236.744C47.28 236.616 46.7413 236.552 46.208 236.552C45.6427 236.552 45.216 236.653 44.928 236.856C44.6507 237.048 44.512 237.283 44.512 237.56C44.512 237.795 44.6187 238.013 44.832 238.216C45.0453 238.408 45.376 238.515 45.824 238.536ZM64.16 239.272C63.0613 239.272 62.2613 239.101 61.76 238.76C61.2693 238.419 61.024 237.779 61.024 236.84V226.328L62.16 226.392C62.1493 226.563 62.1333 226.861 62.112 227.288C62.1013 227.715 62.0907 228.195 62.08 228.728C62.0693 229.123 62.0587 229.555 62.048 230.024C62.048 230.493 62.048 230.989 62.048 231.512V236.696C62.048 237.283 62.208 237.693 62.528 237.928C62.848 238.152 63.408 238.264 64.208 238.264C64.848 238.264 65.488 238.168 66.128 237.976C66.7787 237.784 67.392 237.533 67.968 237.224C68.544 236.915 69.04 236.589 69.456 236.248C69.456 236.312 69.4667 236.429 69.488 236.6C69.52 236.771 69.5467 236.936 69.568 237.096C69.6 237.245 69.6213 237.347 69.632 237.4C69.12 237.763 68.5547 238.088 67.936 238.376C67.328 238.653 66.6987 238.872 66.048 239.032C65.408 239.192 64.7787 239.272 64.16 239.272ZM67.68 230.12C67.5307 229.907 67.3333 229.672 67.088 229.416C66.8533 229.149 66.608 228.899 66.352 228.664C66.096 228.429 65.8667 228.237 65.664 228.088L66.192 227.624C66.3733 227.763 66.5973 227.96 66.864 228.216C67.1413 228.461 67.408 228.717 67.664 228.984C67.92 229.24 68.112 229.459 68.24 229.64L67.68 230.12ZM68.896 228.904C68.7467 228.691 68.544 228.461 68.288 228.216C68.0427 227.971 67.7867 227.736 67.52 227.512C67.264 227.277 67.0293 227.091 66.816 226.952L67.344 226.472C67.536 226.6 67.7653 226.787 68.032 227.032C68.3093 227.277 68.5813 227.528 68.848 227.784C69.1147 228.029 69.3173 228.243 69.456 228.424L68.896 228.904ZM81.84 238.936C81.7973 238.787 81.728 238.621 81.632 238.44C81.536 238.248 81.4293 238.093 81.312 237.976C82.2827 237.923 83.12 237.72 83.824 237.368C84.5387 237.016 85.088 236.541 85.472 235.944C85.8667 235.336 86.064 234.632 86.064 233.832C86.064 232.989 85.7813 232.291 85.216 231.736C84.6507 231.171 83.936 230.797 83.072 230.616C82.4427 231.96 81.7067 233.176 80.864 234.264C81.2053 234.531 81.568 234.755 81.952 234.936C81.8453 235.032 81.728 235.165 81.6 235.336C81.4827 235.496 81.392 235.635 81.328 235.752C80.9547 235.56 80.592 235.331 80.24 235.064C79.4827 235.939 78.7627 236.573 78.08 236.968C77.5893 237.256 77.136 237.411 76.72 237.432C76.304 237.453 75.968 237.325 75.712 237.048C75.4667 236.76 75.344 236.323 75.344 235.736C75.344 234.979 75.52 234.237 75.872 233.512C76.224 232.787 76.6933 232.141 77.28 231.576C76.9493 231.011 76.656 230.445 76.4 229.88C76.144 229.304 75.9253 228.755 75.744 228.232L76.656 227.816C76.7733 228.275 76.944 228.776 77.168 229.32C77.392 229.853 77.6693 230.397 78 230.952C78.5653 230.536 79.1787 230.205 79.84 229.96C80.5013 229.715 81.1787 229.592 81.872 229.592C81.9573 229.592 82.0427 229.592 82.128 229.592C82.224 229.592 82.3147 229.597 82.4 229.608C82.8373 228.573 83.1467 227.576 83.328 226.616L84.352 226.904C84.256 227.373 84.128 227.848 83.968 228.328C83.8187 228.808 83.6427 229.283 83.44 229.752C84.1867 229.923 84.832 230.205 85.376 230.6C85.92 230.995 86.3413 231.469 86.64 232.024C86.9387 232.579 87.088 233.181 87.088 233.832C87.088 235.219 86.6347 236.365 85.728 237.272C84.8213 238.179 83.5253 238.733 81.84 238.936ZM77.616 236.152C78.2133 235.811 78.8427 235.24 79.504 234.44C79.184 234.131 78.88 233.805 78.592 233.464C78.304 233.112 78.0373 232.749 77.792 232.376C77.3333 232.867 76.9653 233.405 76.688 233.992C76.4213 234.579 76.288 235.155 76.288 235.72C76.288 236.104 76.3947 236.339 76.608 236.424C76.8213 236.509 77.1573 236.419 77.616 236.152ZM80.128 233.64C80.4693 233.171 80.8 232.669 81.12 232.136C81.44 231.603 81.7333 231.053 82 230.488H81.872C81.2533 230.477 80.6507 230.589 80.064 230.824C79.488 231.048 78.9653 231.347 78.496 231.72C78.9653 232.424 79.5093 233.064 80.128 233.64ZM100.416 239.448C99.552 239.491 98.7253 239.459 97.936 239.352C97.1573 239.256 96.464 239.075 95.856 238.808C95.248 238.531 94.768 238.168 94.416 237.72C94.0747 237.261 93.904 236.707 93.904 236.056C93.904 235.501 94.0587 235.032 94.368 234.648C94.688 234.264 95.12 233.971 95.664 233.768C96.208 233.555 96.8267 233.432 97.52 233.4C98.2133 233.357 98.9333 233.405 99.68 233.544C99.2427 233.064 98.8427 232.541 98.48 231.976C98.128 231.4 97.824 230.803 97.568 230.184C96.5547 230.269 95.5627 230.339 94.592 230.392C93.632 230.445 92.8 230.467 92.096 230.456L91.92 229.416C92.5707 229.459 93.3653 229.469 94.304 229.448C95.2533 229.416 96.2293 229.357 97.232 229.272C97.072 228.771 96.9493 228.275 96.864 227.784C96.7787 227.283 96.736 226.787 96.736 226.296H97.792C97.76 227.224 97.9093 228.184 98.24 229.176C99.2853 229.08 100.261 228.963 101.168 228.824C102.075 228.675 102.779 228.531 103.28 228.392L103.504 229.4C102.971 229.517 102.267 229.64 101.392 229.768C100.517 229.885 99.5787 229.992 98.576 230.088C98.9173 230.867 99.3547 231.608 99.888 232.312C100.432 233.005 101.045 233.597 101.728 234.088L101.104 234.872C100.432 234.595 99.7387 234.413 99.024 234.328C98.3093 234.232 97.6373 234.232 97.008 234.328C96.3893 234.424 95.888 234.616 95.504 234.904C95.12 235.192 94.928 235.576 94.928 236.056C94.928 236.547 95.088 236.952 95.408 237.272C95.728 237.592 96.1653 237.843 96.72 238.024C97.2747 238.195 97.8987 238.307 98.592 238.36C99.296 238.403 100.021 238.392 100.768 238.328C100.693 238.477 100.619 238.669 100.544 238.904C100.48 239.128 100.437 239.309 100.416 239.448Z" fill="black"/>
<rect x="0.5" y="115.5" width="48" height="27" fill="white"/>
<rect x="0.5" y="115.5" width="48" height="27" stroke="black"/>
<path d="M13.408 136.432V123.536H22.4V136.432H13.408ZM14.368 135.52H21.424V124.464H14.368V135.52ZM15.68 134.016V129.968H17.44V128.144H14.864V127.264H17.44V125.264H18.368V127.264H20.896V128.144H18.368V129.968H20.112V134.016H15.68ZM10.656 137.136V127.904C10.3787 128.395 10.096 128.859 9.808 129.296C9.52 129.723 9.23733 130.107 8.96 130.448C8.88533 130.341 8.76267 130.224 8.592 130.096C8.42133 129.957 8.288 129.861 8.192 129.808C8.55467 129.413 8.92267 128.912 9.296 128.304C9.68 127.685 10.0427 127.029 10.384 126.336C10.736 125.643 11.0347 124.971 11.28 124.32C11.536 123.669 11.7173 123.104 11.824 122.624L12.816 122.864C12.688 123.333 12.5227 123.84 12.32 124.384C12.1173 124.928 11.888 125.472 11.632 126.016V137.136H10.656ZM16.592 133.136H19.2V130.864H16.592V133.136ZM30.448 136.48V135.52H34.64V131.728H31.424V130.768H34.64V127.552H32.304C32.0907 128.032 31.856 128.491 31.6 128.928C31.3547 129.355 31.104 129.733 30.848 130.064C30.8053 130.032 30.72 129.984 30.592 129.92C30.4747 129.845 30.352 129.781 30.224 129.728C30.1067 129.664 30.0213 129.627 29.968 129.616C30.224 129.296 30.48 128.912 30.736 128.464C30.992 128.005 31.232 127.52 31.456 127.008C31.68 126.485 31.872 125.968 32.032 125.456C32.192 124.933 32.3093 124.453 32.384 124.016L33.328 124.192C33.2747 124.587 33.1893 124.987 33.072 125.392C32.9653 125.797 32.8373 126.203 32.688 126.608H34.64V122.832H35.664V126.608H39.392V127.552H35.664V130.768H38.992V131.728H35.664V135.52H39.856V136.48H30.448ZM27.6 137.152V122.704H28.608V137.152H27.6ZM26.112 130.864C26.08 130.843 26 130.816 25.872 130.784C25.744 130.741 25.616 130.699 25.488 130.656C25.3707 130.613 25.2907 130.592 25.248 130.592C25.3333 130.347 25.4133 130.032 25.488 129.648C25.5733 129.253 25.648 128.837 25.712 128.4C25.776 127.952 25.824 127.525 25.856 127.12C25.8987 126.715 25.92 126.368 25.92 126.08L26.816 126.144C26.8053 126.496 26.7787 126.891 26.736 127.328C26.6933 127.765 26.6347 128.208 26.56 128.656C26.496 129.104 26.4267 129.525 26.352 129.92C26.2773 130.304 26.1973 130.619 26.112 130.864ZM30.016 128.128C29.8773 127.84 29.6853 127.499 29.44 127.104C29.2053 126.699 28.976 126.352 28.752 126.064L29.456 125.584C29.712 125.936 29.9627 126.299 30.208 126.672C30.464 127.045 30.656 127.371 30.784 127.648L30.016 128.128Z" fill="black"/>
<rect x="48.5" y="37.5" width="48" height="27" fill="white"/>
<rect x="48.5" y="37.5" width="48" height="27" stroke="black"/>
<path d="M57.296 59.104C57.2427 58.9547 57.1627 58.7947 57.056 58.624C56.96 58.464 56.8427 58.3307 56.704 58.224C57.7813 57.9787 58.6827 57.5787 59.408 57.024C60.1333 56.4693 60.6827 55.712 61.056 54.752C61.4293 53.792 61.6267 52.5813 61.648 51.12H57.168V50.128H70.816V51.12H66.08V57.136C66.08 57.3387 66.128 57.488 66.224 57.584C66.32 57.68 66.5013 57.728 66.768 57.728H68.736C69.0667 57.728 69.3333 57.6907 69.536 57.616C69.7493 57.5307 69.9147 57.3227 70.032 56.992C70.1493 56.6613 70.24 56.1333 70.304 55.408C70.4213 55.4827 70.5813 55.5627 70.784 55.648C70.9867 55.7333 71.1573 55.7973 71.296 55.84C71.232 56.4907 71.1307 57.0133 70.992 57.408C70.864 57.792 70.704 58.08 70.512 58.272C70.32 58.464 70.1013 58.5867 69.856 58.64C69.6107 58.704 69.344 58.736 69.056 58.736H66.416C65.936 58.736 65.584 58.64 65.36 58.448C65.136 58.2667 65.024 57.9573 65.024 57.52V51.12H62.704C62.6827 52.656 62.4693 53.9573 62.064 55.024C61.6587 56.08 61.0613 56.9387 60.272 57.6C59.4827 58.2613 58.4907 58.7627 57.296 59.104ZM58.8 46.576V45.616H69.2V46.576H58.8ZM86.576 59.12C85.808 58.8107 85.216 58.112 84.8 57.024C84.384 55.936 84.176 54.5387 84.176 52.832V51.776H74.64V50.864H85.216C85.1947 51.0987 85.1787 51.4027 85.168 51.776C85.1573 52.1387 85.152 52.5227 85.152 52.928C85.152 55.5093 85.6427 57.2 86.624 58C86.72 57.7547 86.8267 57.4773 86.944 57.168C87.0613 56.8587 87.1627 56.5867 87.248 56.352C87.344 56.1067 87.3973 55.9627 87.408 55.92C87.4933 55.9947 87.6213 56.08 87.792 56.176C87.9733 56.2613 88.1333 56.3253 88.272 56.368C88.2507 56.4213 88.192 56.576 88.096 56.832C88.0107 57.0773 87.9093 57.3547 87.792 57.664C87.6747 57.9627 87.5627 58.2293 87.456 58.464C87.36 58.7093 87.296 58.8533 87.264 58.896C87.1893 59.024 87.0827 59.1093 86.944 59.152C86.816 59.1947 86.6933 59.184 86.576 59.12ZM74.256 59.136C74.1813 58.976 74.1013 58.816 74.016 58.656C73.9413 58.5067 73.84 58.368 73.712 58.24C74.6613 57.9413 75.568 57.5573 76.432 57.088C77.296 56.608 78.08 56.064 78.784 55.456C78.2613 54.9867 77.744 54.56 77.232 54.176C76.7307 53.7813 76.288 53.4827 75.904 53.28L76.576 52.592C76.96 52.816 77.408 53.12 77.92 53.504C78.4427 53.888 78.976 54.3147 79.52 54.784C79.9253 54.3787 80.2933 53.9573 80.624 53.52C80.9547 53.0827 81.2373 52.6347 81.472 52.176L82.368 52.656C81.8347 53.616 81.12 54.5333 80.224 55.408C80.7253 55.8453 81.1947 56.288 81.632 56.736C82.08 57.184 82.4587 57.6 82.768 57.984C82.6507 58.0693 82.512 58.176 82.352 58.304C82.192 58.4427 82.0587 58.5707 81.952 58.688C81.6747 58.3253 81.3173 57.9147 80.88 57.456C80.4427 56.9973 79.9733 56.5387 79.472 56.08C78.7253 56.7307 77.904 57.3173 77.008 57.84C76.1227 58.3627 75.2053 58.7947 74.256 59.136ZM74.32 50.448C74.1067 50.1813 73.8507 49.9627 73.552 49.792C74.096 49.3867 74.608 48.8907 75.088 48.304C75.568 47.7067 75.9893 47.0827 76.352 46.432C76.7147 45.7707 76.9867 45.152 77.168 44.576L78.128 44.88C77.9573 45.328 77.7653 45.7707 77.552 46.208H86.944V47.088H77.088C76.7147 47.7173 76.2933 48.32 75.824 48.896C75.3547 49.472 74.8533 49.9893 74.32 50.448ZM77.44 49.312V48.432H85.328V49.312H77.44Z" fill="black"/>
<rect x="114.5" y="15.5" width="48" height="27" fill="white"/>
<rect x="114.5" y="15.5" width="48" height="27" stroke="black"/>
<path d="M125.536 31.696V27.632H134.32V31.696H125.536ZM136.064 27.584C135.851 27.3387 135.621 27.088 135.376 26.832C135.141 26.576 134.896 26.3253 134.64 26.08C134.128 26.1227 133.504 26.1707 132.768 26.224C132.032 26.2667 131.237 26.3093 130.384 26.352C129.541 26.3947 128.688 26.4373 127.824 26.48C126.971 26.5227 126.165 26.56 125.408 26.592C124.651 26.6133 123.995 26.6347 123.44 26.656L123.264 25.696C123.691 25.6853 124.149 25.6747 124.64 25.664C125.131 25.6533 125.643 25.6427 126.176 25.632C126.581 25.0987 126.955 24.56 127.296 24.016C127.637 23.4613 127.941 22.9547 128.208 22.496L129.248 22.848C128.96 23.3067 128.661 23.7707 128.352 24.24C128.043 24.7093 127.717 25.1627 127.376 25.6C128.517 25.5573 129.659 25.5093 130.8 25.456C131.952 25.4027 132.96 25.3547 133.824 25.312C133.579 25.088 133.323 24.8693 133.056 24.656C132.8 24.432 132.539 24.224 132.272 24.032L132.992 23.36C133.387 23.6587 133.808 24.0107 134.256 24.416C134.715 24.8107 135.168 25.2213 135.616 25.648C136.064 26.0747 136.469 26.4907 136.832 26.896C136.789 26.928 136.715 26.992 136.608 27.088C136.501 27.184 136.395 27.28 136.288 27.376C136.181 27.472 136.107 27.5413 136.064 27.584ZM126.512 30.816H133.344V28.528H126.512V30.816ZM128.384 36.896C127.872 36.896 127.515 36.816 127.312 36.656C127.109 36.496 127.008 36.2187 127.008 35.824V32.608H128.032V35.44C128.032 35.6 128.069 35.7227 128.144 35.808C128.229 35.8933 128.395 35.936 128.64 35.936H131.488C132.021 35.936 132.395 35.8133 132.608 35.568C132.821 35.3227 132.955 34.8587 133.008 34.176C133.125 34.24 133.28 34.3093 133.472 34.384C133.664 34.448 133.829 34.5067 133.968 34.56C133.904 35.168 133.781 35.6427 133.6 35.984C133.429 36.3253 133.189 36.56 132.88 36.688C132.571 36.8267 132.176 36.896 131.696 36.896H128.384ZM136.512 36.224C136.352 35.9573 136.123 35.6373 135.824 35.264C135.536 34.8907 135.227 34.5227 134.896 34.16C134.576 33.7867 134.272 33.4773 133.984 33.232L134.704 32.624C134.96 32.848 135.253 33.136 135.584 33.488C135.915 33.84 136.24 34.208 136.56 34.592C136.891 34.9653 137.157 35.3013 137.36 35.6C137.317 35.6213 137.232 35.6747 137.104 35.76C136.987 35.8453 136.869 35.9307 136.752 36.016C136.635 36.112 136.555 36.1813 136.512 36.224ZM123.44 36.48C123.408 36.448 123.333 36.384 123.216 36.288C123.109 36.2027 122.997 36.112 122.88 36.016C122.763 35.9307 122.677 35.8773 122.624 35.856C122.88 35.632 123.152 35.3333 123.44 34.96C123.739 34.576 124.016 34.1867 124.272 33.792C124.528 33.3867 124.715 33.0453 124.832 32.768L125.696 33.152C125.547 33.4933 125.344 33.872 125.088 34.288C124.843 34.6933 124.576 35.0933 124.288 35.488C124 35.872 123.717 36.2027 123.44 36.48ZM131.088 34.832C130.949 34.6293 130.757 34.3893 130.512 34.112C130.277 33.8347 130.032 33.568 129.776 33.312C129.531 33.0453 129.307 32.8373 129.104 32.688L129.776 32.096C129.979 32.2667 130.208 32.48 130.464 32.736C130.72 32.9813 130.971 33.232 131.216 33.488C131.461 33.7333 131.669 33.9627 131.84 34.176C131.797 34.1973 131.717 34.256 131.6 34.352C131.493 34.448 131.387 34.544 131.28 34.64C131.184 34.7253 131.12 34.7893 131.088 34.832ZM145.488 37.168V29.888H152.432V35.952C152.432 36.3787 152.336 36.688 152.144 36.88C151.952 37.072 151.6 37.168 151.088 37.168H149.984C149.973 37.0507 149.947 36.8907 149.904 36.688C149.872 36.4853 149.835 36.3307 149.792 36.224H150.928C151.141 36.224 151.285 36.1867 151.36 36.112C151.435 36.048 151.472 35.92 151.472 35.728V34.544H146.448V37.168H145.488ZM143.952 30.128C143.92 30.0853 143.856 30.016 143.76 29.92C143.664 29.824 143.568 29.728 143.472 29.632C143.376 29.536 143.301 29.4773 143.248 29.456C144.048 28.8053 144.731 28.1013 145.296 27.344C145.872 26.576 146.341 25.7547 146.704 24.88H144.128V24.048H147.024C147.205 23.5467 147.349 23.0293 147.456 22.496L148.432 22.656C148.379 22.8907 148.315 23.1253 148.24 23.36C148.176 23.5947 148.107 23.824 148.032 24.048H153.68V24.88H147.712C147.637 25.072 147.557 25.2587 147.472 25.44C147.387 25.6213 147.296 25.8027 147.2 25.984H152.704V26.768H149.936V28.144H153.744V28.928H145.776V28.208C145.232 28.8907 144.624 29.5307 143.952 30.128ZM141.456 37.152V22.688H142.4V37.152H141.456ZM146.448 33.728H151.472V32.624H146.448V33.728ZM146.448 31.808H151.472V30.736H146.448V31.808ZM139.936 30.624C139.893 30.6027 139.808 30.576 139.68 30.544C139.563 30.512 139.44 30.48 139.312 30.448C139.195 30.4053 139.115 30.3787 139.072 30.368C139.157 30.1227 139.243 29.808 139.328 29.424C139.413 29.04 139.488 28.6347 139.552 28.208C139.616 27.7707 139.669 27.3493 139.712 26.944C139.755 26.5387 139.776 26.1867 139.776 25.888L140.656 25.968C140.645 26.2987 140.613 26.6773 140.56 27.104C140.517 27.52 140.464 27.9467 140.4 28.384C140.336 28.8213 140.261 29.2373 140.176 29.632C140.101 30.0267 140.021 30.3573 139.936 30.624ZM145.824 28.144H148.992V26.768H146.768C146.629 27.0027 146.48 27.2373 146.32 27.472C146.171 27.696 146.005 27.92 145.824 28.144ZM143.824 28.128C143.696 27.7867 143.525 27.392 143.312 26.944C143.099 26.496 142.885 26.112 142.672 25.792L143.44 25.408C143.664 25.7707 143.893 26.176 144.128 26.624C144.363 27.072 144.539 27.4507 144.656 27.76C144.613 27.7707 144.528 27.8027 144.4 27.856C144.283 27.9093 144.165 27.9627 144.048 28.016C143.941 28.0693 143.867 28.1067 143.824 28.128Z" fill="black"/>
</svg>
