<svg width="107" height="90" viewBox="0 0 107 90" fill="none" xmlns="http://www.w3.org/2000/svg">
<path d="M33.2941 11.8633C33.6546 10.8977 34.8592 10.575 35.6542 11.231L49.7068 22.8279C50.1262 23.174 50.6475 23.3734 51.1908 23.3968L69.3932 24.1822C70.4229 24.2266 71.1022 25.273 70.7239 26.2318L64.038 43.1804C63.8385 43.6861 63.809 44.243 63.9545 44.7668L68.8333 62.322C69.1089 63.3148 68.3241 64.2834 67.2956 64.2202L49.1103 63.0986C48.5676 63.0651 48.0279 63.2097 47.5746 63.5101L32.3865 73.5741C31.5274 74.143 30.3634 73.6967 30.1057 72.699L25.5533 55.0564C25.4174 54.5299 25.1134 54.0625 24.6878 53.7242L10.4233 42.3893C9.61632 41.7481 9.68132 40.5023 10.5509 39.9489L25.922 30.1676C26.3808 29.8756 26.7325 29.4423 26.9227 28.9329L33.2941 11.8633Z" fill="#E8F8FF" stroke="black"/>
<path d="M93.4635 56.9682C94.2835 56.0285 95.8249 56.4415 96.0651 57.6653L96.9339 62.0938C97.1294 63.0907 97.9089 63.8702 98.9057 64.0659L103.335 64.9342C104.559 65.1744 104.972 66.7173 104.032 67.5372L100.631 70.5034C99.8657 71.1712 99.5804 72.2362 99.9095 73.1974L101.371 77.4662C101.775 78.6463 100.646 79.7761 99.4662 79.3722L95.1963 77.9096C94.2352 77.5806 93.1704 77.866 92.5026 78.6315L89.536 82.0323C88.7161 82.9721 87.1746 82.5591 86.9344 81.3352L86.0657 76.9067C85.8701 75.9099 85.0907 75.1304 84.0938 74.9347L79.6647 74.0664C78.4408 73.8262 78.028 72.2833 78.968 71.4634L82.3682 68.4972C83.1338 67.8293 83.4192 66.7644 83.09 65.8032L81.6285 61.5343C81.2244 60.3543 82.3533 59.2245 83.5334 59.6284L87.8032 61.091C88.7644 61.4199 89.8292 61.1346 90.4969 60.369L93.4635 56.9682Z" fill="#FFF3C0" stroke="black"/>
</svg>
