<svg width="32" height="32" viewBox="0 0 32 32" fill="none" xmlns="http://www.w3.org/2000/svg">
<mask id="path-1-inside-1_932_1035" fill="white">
<path d="M17.4543 8.17432C19.8667 5.76192 23.7783 5.76192 26.1907 8.17432C28.6029 10.5867 28.6029 14.4973 26.1907 16.9097L24.7346 18.3657L24.7356 18.3667L15.9993 27.1021L15.9983 27.1011V27.1021L5.80688 16.9106C3.39458 14.4983 3.39474 10.5867 5.80688 8.17432C8.21928 5.76192 12.1308 5.76192 14.5432 8.17432L15.9983 9.62939L17.4543 8.17432Z"/>
</mask>
<path d="M17.4543 8.17432C19.8667 5.76192 23.7783 5.76192 26.1907 8.17432C28.6029 10.5867 28.6029 14.4973 26.1907 16.9097L24.7346 18.3657L24.7356 18.3667L15.9993 27.1021L15.9983 27.1011V27.1021L5.80688 16.9106C3.39458 14.4983 3.39474 10.5867 5.80688 8.17432C8.21928 5.76192 12.1308 5.76192 14.5432 8.17432L15.9983 9.62939L17.4543 8.17432Z" fill="#FFA8A7"/>
<path d="M17.4543 8.17432L18.8681 9.589L18.8686 9.58853L17.4543 8.17432ZM26.1907 8.17432L27.6049 6.76015L27.6049 6.7601L26.1907 8.17432ZM26.1907 16.9097L27.6049 18.3239L27.6049 18.3239L26.1907 16.9097ZM24.7346 18.3657L23.3204 16.9515L21.9062 18.3657L23.3204 19.7799L24.7346 18.3657ZM24.7356 18.3667L26.1497 19.781L27.5641 18.3668L26.1498 16.9525L24.7356 18.3667ZM15.9993 27.1021L14.5851 28.5163L15.9992 29.9304L17.4134 28.5163L15.9993 27.1021ZM15.9983 27.1011L17.4125 25.6869L13.9983 22.2726V27.1011H15.9983ZM15.9983 27.1021L14.5841 28.5163L17.9983 31.9305V27.1021H15.9983ZM5.80688 16.9106L4.39267 18.3249L4.39267 18.3249L5.80688 16.9106ZM5.80688 8.17432L4.39267 6.7601L4.39259 6.76018L5.80688 8.17432ZM14.5432 8.17432L13.129 9.58853L13.129 9.58853L14.5432 8.17432ZM15.9983 9.62939L14.5841 11.0436L15.9978 12.4573L17.412 11.0441L15.9983 9.62939ZM17.4543 8.17432L18.8686 9.58853C20.4999 7.95718 23.1451 7.95718 24.7765 9.58853L26.1907 8.17432L27.6049 6.7601C24.4114 3.56666 19.2336 3.56666 16.0401 6.7601L17.4543 8.17432ZM26.1907 8.17432L24.7764 9.58848C26.4077 11.2198 26.4077 13.8642 24.7764 15.4955L26.1907 16.9097L27.6049 18.3239C30.7982 15.1304 30.7981 9.95355 27.6049 6.76015L26.1907 8.17432ZM26.1907 16.9097L24.7765 15.4955L23.3204 16.9515L24.7346 18.3657L26.1488 19.7799L27.6049 18.3239L26.1907 16.9097ZM24.7346 18.3657L23.3204 19.7799L23.3214 19.7809L24.7356 18.3667L26.1498 16.9525L26.1488 16.9515L24.7346 18.3657ZM24.7356 18.3667L23.3215 16.9524L14.5851 25.6878L15.9993 27.1021L17.4134 28.5163L26.1497 19.781L24.7356 18.3667ZM15.9993 27.1021L17.4135 25.6878L17.4125 25.6869L15.9983 27.1011L14.5841 28.5153L14.5851 28.5163L15.9993 27.1021ZM15.9983 27.1011H13.9983V27.1021H15.9983H17.9983V27.1011H15.9983ZM15.9983 27.1021L17.4125 25.6878L7.2211 15.4964L5.80688 16.9106L4.39267 18.3249L14.5841 28.5163L15.9983 27.1021ZM5.80688 16.9106L7.2211 15.4964C5.58992 13.8652 5.5899 11.2199 7.22118 9.58845L5.80688 8.17432L4.39259 6.76018C1.19959 9.95355 1.19923 15.1314 4.39267 18.3249L5.80688 16.9106ZM5.80688 8.17432L7.2211 9.58853C8.85244 7.95718 11.4977 7.95718 13.129 9.58853L14.5432 8.17432L15.9574 6.7601C12.764 3.56666 7.58611 3.56666 4.39267 6.7601L5.80688 8.17432ZM14.5432 8.17432L13.129 9.58853L14.5841 11.0436L15.9983 9.62939L17.4125 8.21518L15.9574 6.7601L14.5432 8.17432ZM15.9983 9.62939L17.412 11.0441L18.8681 9.589L17.4543 8.17432L16.0406 6.75963L14.5846 8.21471L15.9983 9.62939Z" fill="#333333" mask="url(#path-1-inside-1_932_1035)"/>
</svg>
