<svg width="250" height="106" viewBox="0 0 250 106" fill="none" xmlns="http://www.w3.org/2000/svg">
<g clip-path="url(#clip0_686_1047)">
<path d="M218.344 -19.717C221.243 -18.8101 223.671 -16.8196 225.129 -14.1553L225.13 -14.156C225.855 -12.8242 226.348 -11.3753 226.588 -9.87197C226.842 -8.28899 226.86 -6.67369 226.641 -5.07949L226.641 -5.07873C226.41 -3.37947 225.95 -1.71631 225.274 -0.135804L225.121 0.219294L225.426 0.456274C225.564 0.563639 225.699 0.671714 225.83 0.778476L225.831 0.779095C226.948 1.69024 227.954 2.72967 228.828 3.87602L229.195 4.37395C230.095 5.63633 230.805 7.02656 231.302 8.4993L231.304 8.50466C232.228 11.1344 232.243 14.0046 231.352 16.6583L231.163 17.1857C230.604 18.5975 229.785 19.8938 228.749 21.0055C227.7 22.1246 226.47 23.0589 225.115 23.7694L225.114 23.7702C223.865 24.4257 222.54 24.9161 221.171 25.2303L220.581 25.3546C218.9 25.6781 217.185 25.7719 215.484 25.6328L215.104 25.6011L214.974 25.9603C214.388 27.5762 213.588 29.1077 212.594 30.5123L212.593 30.5131C211.662 31.8323 210.543 33.0081 209.271 34.0016L209.271 34.0024C208.064 34.9468 206.709 35.6805 205.263 36.1732C202.73 37.0307 199.999 37.0136 197.507 36.1348L197.014 35.9477C195.808 35.4577 194.685 34.788 193.683 33.9609L193.681 33.9596C190.986 31.7503 189.004 28.4144 188.124 24.5533L188.038 24.1746L187.65 24.1645C183.691 24.0593 180.032 22.7716 177.337 20.5629L177.336 20.5617C176.327 19.741 175.45 18.7706 174.733 17.6845L174.732 17.6839C173.277 15.4689 172.611 12.8237 172.836 10.1721L172.893 9.64187C173.092 8.12696 173.546 6.65378 174.235 5.28495L174.236 5.2842L174.517 4.74912C175.196 3.51274 176.032 2.36718 177.004 1.34185L177.005 1.34109C178.187 0.0904778 179.531 -0.995247 181.001 -1.88612L181.328 -2.08434L181.222 -2.45135C180.752 -4.09137 180.507 -5.79067 180.494 -7.50244L180.495 -7.5032L180.501 -8.10468C180.54 -9.50865 180.761 -10.9047 181.158 -12.2577L181.159 -12.2585L181.332 -12.8051C181.761 -14.0716 182.375 -15.2711 183.155 -16.363L183.155 -16.3624C184.042 -17.5976 185.152 -18.6561 186.428 -19.4811C188.959 -21.0863 191.968 -21.7384 194.911 -21.3217L194.919 -21.321C196.461 -21.1219 197.963 -20.6978 199.377 -20.0628L199.378 -20.0622C200.884 -19.3894 202.292 -18.5182 203.563 -17.4702L203.565 -17.469C203.696 -17.3611 203.829 -17.2495 203.958 -17.1374L204.25 -16.8846L204.568 -17.1035C205.985 -18.0769 207.525 -18.8548 209.146 -19.4148L209.147 -19.4149C210.668 -19.9439 212.255 -20.2446 213.857 -20.307C215.378 -20.3666 216.896 -20.1679 218.344 -19.7184L218.344 -19.717ZM206.689 1.42137C205.483 0.435709 203.95 -0.0604922 202.389 0.0266909C200.828 0.113903 199.349 0.778338 198.239 1.89034C197.129 3.00227 196.466 4.48362 196.378 6.0474C196.291 7.61156 196.786 9.1478 197.769 10.3569C198.752 11.5659 200.152 12.3602 201.697 12.5865C203.242 12.8127 204.82 12.4543 206.127 11.5833C207.433 10.7124 208.376 9.3903 208.772 7.87242C209.168 6.35447 208.99 4.74777 208.27 3.36454C207.88 2.61566 207.342 1.95451 206.689 1.42137Z" fill="#CBCBCB" stroke="#333333"/>
<path d="M204.74 47.9434C206.184 47.351 207.794 47.3514 209.238 47.9434V47.9443C209.872 48.2059 210.465 48.5625 210.997 49.0029L211.222 49.1973C211.767 49.6884 212.248 50.2505 212.652 50.8691L212.821 51.1377C213.29 51.9124 213.654 52.7497 213.904 53.626L214.011 54L214.399 53.9893C214.49 53.9868 214.58 53.9854 214.668 53.9854H214.669C215.526 53.9831 216.38 54.0984 217.208 54.3281H217.209C217.984 54.5419 218.725 54.8715 219.408 55.3057L219.414 55.3086C220.639 56.0661 221.583 57.2244 222.096 58.5977L222.192 58.875C222.431 59.6321 222.527 60.429 222.478 61.2236C222.425 62.0291 222.24 62.8195 221.931 63.5605H221.93C221.603 64.3452 221.165 65.0752 220.63 65.7266V65.7275C220.059 66.4252 219.399 67.0397 218.668 67.5537L218.359 67.7705L218.483 68.126C218.782 68.9861 218.965 69.8845 219.028 70.7959V70.7969C219.089 71.6487 219.027 72.5052 218.843 73.3379H218.842C218.669 74.1247 218.368 74.8755 217.951 75.5576C217.174 76.8244 215.984 77.7597 214.6 78.1992C213.96 78.4006 213.295 78.5022 212.627 78.5H212.626C210.828 78.5 208.933 77.8045 207.3 76.5156L206.99 76.2705L206.68 76.5156C205.047 77.8045 203.152 78.5 201.354 78.5H201.353C200.684 78.5023 200.019 78.4008 199.379 78.1992H199.38C197.995 77.7596 196.805 76.8242 196.028 75.5576C195.612 74.8756 195.311 74.1246 195.138 73.3379C194.954 72.5051 194.892 71.6488 194.952 70.7969V70.7959C195.016 69.8845 195.199 68.9861 195.497 68.126L195.621 67.7705L195.312 67.5537C194.582 67.0397 193.921 66.4252 193.351 65.7275L193.35 65.7266C192.815 65.0755 192.378 64.3458 192.051 63.5615V63.5605L191.94 63.2803C191.697 62.6216 191.549 61.9284 191.503 61.2236C191.453 60.4294 191.55 59.6328 191.788 58.876C192.274 57.3817 193.26 56.1181 194.567 55.3105L194.572 55.3076C195.256 54.8733 195.998 54.5439 196.773 54.3301H196.774C197.602 54.1003 198.456 53.985 199.313 53.9873H199.314C199.403 53.9873 199.494 53.9879 199.583 53.9902L199.971 54.001L200.077 53.6279C200.327 52.7515 200.691 51.9144 201.16 51.1396V51.1387C201.597 50.4131 202.136 49.759 202.759 49.1973C203.347 48.6669 204.017 48.2433 204.741 47.9443L204.74 47.9434ZM206.99 60.3789C206.098 60.3801 205.241 60.7221 204.584 61.335C203.928 61.9475 203.518 62.7871 203.431 63.6885C203.344 64.5895 203.585 65.4933 204.11 66.2246C204.636 66.9564 205.41 67.4649 206.283 67.6465C207.157 67.828 208.065 67.6683 208.829 67.2012C209.593 66.7342 210.158 65.9944 210.418 65.1279C210.678 64.2619 210.616 63.3275 210.244 62.5049C209.895 61.7332 209.294 61.1088 208.545 60.7402L208.394 60.6699C208.006 60.501 207.592 60.4038 207.171 60.3828L206.99 60.3789Z" fill="#FFE4E4" stroke="#333333"/>
<path d="M13.4216 -5.7341C14.6284 -6.72413 16.1673 -7.19603 17.7217 -7.05386L17.722 -7.05293C18.4046 -6.98887 19.0761 -6.82193 19.714 -6.55697L19.9857 -6.43709C20.651 -6.12755 21.2757 -5.73125 21.8439 -5.25857L22.0842 -5.05141C22.7596 -4.44833 23.3537 -3.75485 23.8497 -2.9904L24.0612 -2.66408L24.4296 -2.78838C24.5158 -2.81744 24.6013 -2.84517 24.6852 -2.87091L24.6861 -2.8712C25.5049 -3.12491 26.3551 -3.26525 27.214 -3.2885L27.2149 -3.28878C28.0185 -3.3118 28.8234 -3.21402 29.6042 -2.99954L29.6106 -2.99846C31.0041 -2.6338 32.2461 -1.8033 33.1393 -0.640975L33.3131 -0.404205C33.7629 0.249642 34.0894 0.983131 34.2748 1.75739C34.4607 2.54287 34.516 3.35265 34.4377 4.15191L34.4367 4.15219C34.3545 4.99824 34.1497 5.82468 33.8297 6.60425L33.8299 6.60519C33.4889 7.43963 33.0381 8.22077 32.4902 8.92663L32.2588 9.22442L32.4817 9.52786C33.0193 10.2626 33.458 11.0677 33.786 11.9204L33.7863 11.9213C34.094 12.7179 34.2859 13.5549 34.3544 14.4049L34.3535 14.4052C34.4189 15.2082 34.3515 16.0142 34.1534 16.7886C33.7822 18.2275 32.9191 19.4709 31.7244 20.2973C31.1723 20.6774 30.5663 20.9697 29.9268 21.1636L29.9259 21.1639C28.2069 21.6915 26.1913 21.5826 24.2519 20.8296L23.884 20.6861L23.6591 21.0116C22.4762 22.7228 20.8691 23.9436 19.1505 24.4711L19.1486 24.4716C18.5101 24.67 17.8443 24.7682 17.1736 24.7632L17.1745 24.7629C15.7221 24.7489 14.3098 24.2038 13.1954 23.2209C12.5972 22.6911 12.0889 22.0615 11.6927 21.3602C11.2725 20.6181 10.9618 19.8176 10.7698 18.9855L10.7695 18.9845C10.5626 18.0947 10.4741 17.1821 10.507 16.2723L10.5213 15.896L10.1627 15.7793C9.31313 15.5023 8.50174 15.1086 7.75129 14.6092L7.75007 14.6085C7.04816 14.1429 6.4157 13.5737 5.87317 12.9199L5.87288 12.9189L5.68515 12.6834C5.25917 12.1251 4.91433 11.5058 4.66347 10.8456C4.38273 10.1009 4.24174 9.31095 4.24725 8.51762C4.27289 6.94668 4.84557 5.44911 5.8581 4.29365L5.8619 4.28941C6.3883 3.67351 7.00078 3.14095 7.67938 2.70905L7.68031 2.70877C8.40433 2.24621 9.18692 1.8854 10.007 1.6361L10.008 1.63581C10.0927 1.6098 10.1794 1.58381 10.2656 1.55981L10.6394 1.45633L10.6317 1.06847C10.6134 0.157316 10.7162 -0.749885 10.9369 -1.62806L10.9366 -1.62899C11.1413 -2.45075 11.4647 -3.23423 11.8953 -3.954C12.3016 -4.63354 12.8182 -5.23519 13.4228 -5.73345L13.4216 -5.7341ZM19.2213 5.49396C18.3689 5.75683 17.6496 6.33535 17.2015 7.11395C16.7536 7.89214 16.6081 8.815 16.7894 9.70227C16.9708 10.5892 17.4668 11.3822 18.1833 11.9274C18.9004 12.4728 19.7893 12.7319 20.6777 12.6491C21.5665 12.5662 22.3873 12.1473 22.9809 11.4764C23.5742 10.8059 23.8972 9.93283 23.8916 9.02823C23.8858 8.12408 23.5529 7.2488 22.9558 6.57164C22.3955 5.93637 21.638 5.51574 20.8136 5.38322L20.6482 5.36042C20.2277 5.31279 19.8034 5.34138 19.3951 5.44468L19.2213 5.49396Z" fill="#FFE4E4" stroke="#333333"/>
<path d="M249.959 36.6662C252.196 33.8294 255.437 31.9578 259.012 31.4383C260.796 31.1829 262.611 31.2323 264.379 31.5839L264.38 31.5842C266.24 31.9526 268.036 32.5949 269.707 33.4906L269.708 33.4914C271.489 34.4427 273.133 35.6322 274.595 37.0264L274.873 37.2918L275.201 37.0902C275.379 36.9813 275.555 36.8768 275.728 36.7767L275.729 36.7763C277.212 35.9153 278.789 35.2307 280.428 34.7354L281.134 34.5342C282.914 34.0575 284.755 33.8432 286.596 33.8975L286.602 33.8975C290.131 33.9591 293.521 35.2785 296.163 37.6183C297.491 38.8156 298.58 40.2538 299.373 41.8569C300.167 43.4751 300.68 45.2165 300.892 47.0067L300.893 47.0075C301.117 48.8904 301.061 50.7961 300.725 52.6624L300.726 52.6633C300.372 54.6518 299.749 56.5832 298.874 58.404L298.708 58.7517L299.002 59.0014C300.541 60.3092 301.895 61.8203 303.027 63.4929L303.027 63.4937C304.093 65.0621 304.919 66.7799 305.48 68.591L305.48 68.5919C306.015 70.3129 306.253 72.1123 306.186 73.9131C306.053 77.2767 304.721 80.4821 302.432 82.95C301.376 84.0827 300.157 85.0506 298.814 85.8203L298.813 85.8208C295.22 87.895 290.686 88.7137 286.043 88.1033L285.662 88.0535L285.515 88.408C283.723 92.734 280.747 96.2508 277.155 98.3247L277.154 98.3257C275.816 99.1044 274.367 99.6767 272.858 100.024L272.857 100.025C269.576 100.773 266.134 100.323 263.156 98.7564C261.563 97.9144 260.124 96.8076 258.901 95.4845L258.9 95.485C257.612 94.0938 256.537 92.5185 255.711 90.8116L255.711 90.8107C254.829 88.994 254.198 87.0654 253.835 85.0786L253.765 84.6995L253.38 84.6701C251.366 84.5167 249.383 84.0901 247.484 83.4026L247.483 83.403C245.699 82.7603 244.021 81.8559 242.503 80.7203L242.502 80.7194L241.969 80.3043C240.749 79.3094 239.681 78.1383 238.802 76.8284C237.81 75.341 237.108 73.6789 236.735 71.9302L236.737 71.9306C236.032 68.4725 236.585 64.8759 238.297 61.7897L238.3 61.7848C239.174 60.1623 240.281 58.6762 241.584 57.373L241.584 57.3717C242.967 55.9844 244.529 54.7875 246.227 53.8125L246.229 53.8115C246.404 53.7103 246.584 53.6107 246.763 53.5135L247.101 53.3295L247.01 52.9561C246.533 50.9935 246.325 48.9744 246.393 46.9559L246.393 46.9545C246.452 45.0588 246.791 43.182 247.401 41.3861L247.402 41.3856C247.981 39.6794 248.845 38.083 249.958 36.6658L249.959 36.6662ZM268.448 58.2338C266.875 59.1452 265.695 60.6084 265.139 62.3399C264.583 64.0714 264.691 65.9479 265.44 67.6049C266.189 69.2618 267.527 70.5818 269.194 71.3081C270.861 72.0344 272.739 72.1157 274.463 71.5361C276.187 70.9564 277.634 69.7564 278.523 68.1702C279.413 66.5841 279.682 64.7243 279.277 62.9513C278.873 61.1783 277.825 59.6189 276.336 58.5751C274.847 57.5313 273.023 57.0773 271.219 57.3019C270.364 57.4078 269.535 57.6634 268.771 58.0565L268.448 58.2338Z" fill="#E9E9E9" stroke="#333333"/>
<path d="M99.4376 -30.744C102.921 -31.7026 106.64 -31.2896 109.828 -29.5888C111.416 -28.737 112.849 -27.6215 114.064 -26.2905L114.065 -26.2895C115.345 -24.8902 116.41 -23.3087 117.226 -21.5967L117.225 -21.5957C118.097 -19.7736 118.716 -17.8411 119.066 -15.852L119.133 -15.4732L119.517 -15.4413C119.724 -15.4238 119.928 -15.4034 120.127 -15.3812L120.128 -15.3811C121.832 -15.196 123.509 -14.8125 125.122 -14.2398L125.81 -13.9834C127.526 -13.3125 129.136 -12.3941 130.587 -11.2588L130.592 -11.2553C133.397 -9.11431 135.346 -6.04193 136.087 -2.59152C136.447 -0.840042 136.472 0.963855 136.16 2.72452C135.841 4.49871 135.222 6.20556 134.332 7.77302L134.331 7.77399C133.396 9.42353 132.221 10.9248 130.845 12.2292L130.845 12.2302C129.381 13.6218 127.734 14.8083 125.951 15.7565L125.61 15.9378L125.699 16.3132C126.164 18.2787 126.359 20.2983 126.279 22.3165L126.279 22.3174C126.207 24.212 125.855 26.0855 125.233 27.8765L125.233 27.8775C124.643 29.5803 123.769 31.1709 122.647 32.5813C120.547 35.2118 117.574 37.0041 114.267 37.6348C112.746 37.9216 111.19 37.9783 109.652 37.8022L109.651 37.8021C105.528 37.3433 101.391 35.3155 98.0134 32.0717L97.7364 31.8061L97.4078 32.0043C93.3999 34.4261 88.9191 35.4951 84.7968 35.0365L84.7949 35.0363C83.2555 34.8703 81.7496 34.4727 80.3284 33.8584L80.3275 33.8583C77.2413 32.5159 74.7361 30.1137 73.2654 27.0865C72.4813 25.4641 71.9788 23.7201 71.7778 21.9295L71.7768 21.9293C71.5637 20.0452 71.6319 18.1396 71.9785 16.2754L71.9786 16.2744C72.3447 14.2882 72.9797 12.3609 73.865 10.5455L74.0333 10.1987L73.7409 9.94708C72.2099 8.63001 70.8651 7.11061 69.7431 5.43137L69.7422 5.43127C68.6864 3.85637 67.8708 2.13321 67.321 0.318681L67.3211 0.31771L67.138 -0.332506C66.7445 -1.85734 66.5786 -3.43344 66.6473 -5.00921C66.7298 -6.79532 67.1498 -8.54987 67.8858 -10.1793L67.8867 -10.1783C69.3688 -13.3811 71.9461 -15.9499 75.1541 -17.421L75.1593 -17.4233C76.8251 -18.2119 78.597 -18.7531 80.4191 -19.0302L80.4201 -19.0311C82.3561 -19.3289 84.3233 -19.3673 86.2695 -19.1457L86.2714 -19.1454C86.4725 -19.1231 86.6763 -19.0968 86.878 -19.0691L87.2593 -19.0169L87.4069 -19.3718C88.1863 -21.2351 89.216 -22.9842 90.4664 -24.5703L90.4675 -24.5711C91.6384 -26.0632 93.024 -27.3737 94.5798 -28.4586L94.5808 -28.4585C96.0587 -29.4893 97.7004 -30.2632 99.4367 -30.745L99.4376 -30.744ZM101.546 -2.41417C99.7383 -2.61295 97.9211 -2.13358 96.447 -1.06845C94.9731 -0.00331097 93.9473 1.57167 93.5686 3.3503C93.1901 5.12885 93.485 6.9848 94.3972 8.55786C95.3096 10.1311 96.774 11.3097 98.506 11.8646C100.238 12.4194 102.115 12.3104 103.771 11.5602C105.428 10.8099 106.747 9.47138 107.472 7.80383C108.197 6.1363 108.277 4.2589 107.697 2.53562C107.116 0.812464 105.916 -0.634075 104.33 -1.52273C103.579 -1.94401 102.76 -2.22939 101.911 -2.36569L101.546 -2.41417Z" fill="#E9E9E9" stroke="#333333"/>
</g>
<defs>
<clipPath id="clip0_686_1047">
<rect width="250" height="106" fill="white"/>
</clipPath>
</defs>
</svg>
