<svg width="128" height="140" viewBox="0 0 128 140" fill="none" xmlns="http://www.w3.org/2000/svg">
<path d="M103.203 108.73C97.5131 116.329 89.9477 122.934 79.8198 125.419L78.8311 125.646L78.7901 125.655L78.7477 125.663C58.6035 129.639 42.4829 115.052 39.5938 97.1952C26.1526 92.8562 20.0316 77.2012 24.1468 64.7956C25.0164 62.1742 27.8458 60.7546 30.4667 61.6243C33.0876 62.494 34.5077 65.3236 33.6383 67.9449C31.395 74.7076 34.1483 82.4631 39.5349 86.1302C39.6309 85.4978 39.7438 84.8651 39.8752 84.2329C40.5003 80.4779 42.523 74.5955 45.441 69.7281C46.9247 67.2531 48.8283 64.7187 51.1779 62.8704C53.5695 60.9893 56.842 59.5249 60.6501 60.2508L60.7187 60.2642L60.7883 60.2792C65.5782 61.3333 68.0851 65.3927 69.1865 68.0885L69.1978 68.1159C71.9518 74.9726 70.5677 82.6421 66.8133 88.3841C63.0159 94.4432 56.6254 97.774 50.018 98.4244C53.1821 109.986 64.2077 118.321 76.781 115.857C84.2149 114.24 90.1955 109.416 95.1992 102.734C100.235 96.009 103.995 87.7769 107.033 80.0874C108.047 77.5188 110.952 76.2593 113.52 77.2741C116.088 78.289 117.347 81.1938 116.333 83.7624C113.207 91.675 109.057 100.912 103.203 108.73ZM49.3059 88.4549C53.0337 88.0082 56.4479 86.0913 58.3401 83.0723L58.3728 83.0196L58.4065 82.9685C60.6978 79.5041 61.2746 75.222 59.9182 71.8447C59.6462 71.1864 59.3223 70.6763 59.026 70.3557C58.885 70.2031 58.7772 70.1235 58.7153 70.0851C58.7035 70.0778 58.6927 70.0728 58.6841 70.0681C58.5133 70.0687 58.1052 70.1461 57.3594 70.7327C56.3416 71.5334 55.1794 72.9344 54.0179 74.8717C51.6818 78.7686 50.1108 83.5335 49.726 85.9477L49.7067 86.0705L49.6803 86.1928C49.5206 86.9498 49.3981 87.7046 49.3059 88.4549Z" fill="white" stroke="black" stroke-miterlimit="10" stroke-linecap="round"/>
<path d="M34.5828 29.0745C34.78 28.772 35.2234 28.772 35.4207 29.0745L37.3757 32.0715C37.7138 32.5898 38.3356 32.8474 38.9412 32.72L42.4431 31.9827C42.7965 31.9083 43.1103 32.2221 43.0359 32.5754L42.2986 36.0774C42.1711 36.6829 42.4287 37.3048 42.947 37.6428L45.9441 39.5979C46.2465 39.7952 46.2465 40.2385 45.9441 40.4358L42.947 42.3909C42.4287 42.7289 42.1711 43.3508 42.2986 43.9563L43.0359 47.4583C43.1103 47.8116 42.7965 48.1254 42.4431 48.051L38.9412 47.3137C38.3356 47.1863 37.7138 47.4439 37.3757 47.9622L35.4207 50.9592C35.2234 51.2617 34.78 51.2617 34.5828 50.9592L32.6277 47.9622C32.2896 47.4439 31.6678 47.1863 31.0623 47.3137L27.5603 48.051C27.2069 48.1254 26.8932 47.8116 26.9675 47.4583L27.7048 43.9563C27.8323 43.3508 27.5747 42.7289 27.0564 42.3909L24.0593 40.4358C23.7569 40.2385 23.7569 39.7952 24.0593 39.5979L27.0564 37.6428C27.5747 37.3047 27.8323 36.6829 27.7048 36.0774L26.9675 32.5754C26.8932 32.2221 27.2069 31.9083 27.5603 31.9827L31.0623 32.72C31.6678 32.8474 32.2896 32.5898 32.6277 32.0715L34.5828 29.0745Z" fill="#FFE4E4" stroke="black"/>
</svg>
