<svg width="98" height="98" viewBox="0 0 98 98" fill="none" xmlns="http://www.w3.org/2000/svg">
<rect width="98" height="98" fill="#91C5D8"/>
<path d="M39.6297 48V38.2H41.4497L45.8317 44.822V38.2H47.6657V48H45.9297L41.4497 41.154V48H39.6297ZM54.2321 48.238C53.3455 48.238 52.5521 48.028 51.8521 47.608C51.1521 47.188 50.6015 46.5953 50.2001 45.83C49.8081 45.0553 49.6121 44.1453 49.6121 43.1C49.6121 42.0453 49.8081 41.1353 50.2001 40.37C50.6015 39.5953 51.1521 38.998 51.8521 38.578C52.5521 38.1487 53.3455 37.934 54.2321 37.934C55.1188 37.934 55.9075 38.1487 56.5981 38.578C57.2981 38.998 57.8441 39.5953 58.2361 40.37C58.6375 41.1353 58.8381 42.0453 58.8381 43.1C58.8381 44.1453 58.6375 45.0553 58.2361 45.83C57.8441 46.5953 57.2981 47.188 56.5981 47.608C55.9075 48.028 55.1188 48.238 54.2321 48.238ZM54.2321 46.474C54.7921 46.474 55.2728 46.334 55.6741 46.054C56.0848 45.7647 56.3975 45.368 56.6121 44.864C56.8361 44.36 56.9481 43.772 56.9481 43.1C56.9481 42.4187 56.8361 41.826 56.6121 41.322C56.3975 40.818 56.0848 40.426 55.6741 40.146C55.2728 39.8567 54.7921 39.712 54.2321 39.712C53.6815 39.712 53.2008 39.8567 52.7901 40.146C52.3888 40.426 52.0761 40.818 51.8521 41.322C51.6281 41.826 51.5161 42.4187 51.5161 43.1C51.5161 43.772 51.6281 44.36 51.8521 44.864C52.0761 45.368 52.3888 45.7647 52.7901 46.054C53.2008 46.334 53.6815 46.474 54.2321 46.474ZM28.4059 62V52.2H30.2259V62H28.4059ZM32.6573 62V52.2H34.4773L37.1373 56.82L39.7693 52.2H41.6033V62H39.7553V55.35L37.6553 59.158H36.5913L34.4913 55.35V62H32.6573ZM43.2058 62L46.8878 52.2H48.4978L52.1798 62H50.1218L49.4638 60.054H45.8658L45.2078 62H43.2058ZM46.4538 58.374H48.8898L47.6858 54.818L46.4538 58.374ZM57.4431 62.238C56.5564 62.238 55.7678 62.028 55.0771 61.608C54.3958 61.188 53.8591 60.5953 53.4671 59.83C53.0844 59.0553 52.8931 58.1453 52.8931 57.1C52.8931 56.0453 53.0844 55.1353 53.4671 54.37C53.8591 53.5953 54.3958 52.998 55.0771 52.578C55.7678 52.1487 56.5564 51.934 57.4431 51.934C58.1898 51.934 58.8758 52.0693 59.5011 52.34C60.1264 52.6013 60.6398 52.9233 61.0411 53.306L59.8931 54.734C59.6318 54.4353 59.2818 54.1927 58.8431 54.006C58.4044 53.81 57.9378 53.712 57.4431 53.712C56.8924 53.712 56.4164 53.8567 56.0151 54.146C55.6231 54.426 55.3198 54.818 55.1051 55.322C54.8998 55.826 54.7971 56.4187 54.7971 57.1C54.7971 57.772 54.8998 58.36 55.1051 58.864C55.3198 59.368 55.6231 59.7647 56.0151 60.054C56.4164 60.334 56.8924 60.474 57.4431 60.474C57.8724 60.474 58.2224 60.4367 58.4931 60.362C58.7638 60.278 58.9924 60.1753 59.1791 60.054V58.164H57.6951V56.484H61.0271V61.258C60.5511 61.5753 59.9958 61.818 59.3611 61.986C58.7358 62.154 58.0964 62.238 57.4431 62.238ZM63.2396 62V52.2H69.9176V53.88H65.0596V56.162H69.4976V57.842H65.0596V60.32H70.0716V62H63.2396Z" fill="white"/>
</svg>
